%TF.GenerationSoftware,KiCad,Pcbnew,6.0.11-2627ca5db0~126~ubuntu20.04.1*%
%TF.CreationDate,2023-02-14T16:49:56+01:00*%
%TF.ProjectId,pmod_sfp,706d6f64-5f73-4667-902e-6b696361645f,rev?*%
%TF.SameCoordinates,Original*%
%TF.FileFunction,Legend,Top*%
%TF.FilePolarity,Positive*%
%FSLAX46Y46*%
G04 Gerber Fmt 4.6, Leading zero omitted, Abs format (unit mm)*
G04 Created by KiCad (PCBNEW 6.0.11-2627ca5db0~126~ubuntu20.04.1) date 2023-02-14 16:49:56*
%MOMM*%
%LPD*%
G01*
G04 APERTURE LIST*
%ADD10C,0.150000*%
%ADD11C,0.120000*%
G04 APERTURE END LIST*
D10*
%TO.C,C1*%
X159825333Y-64619142D02*
X159777714Y-64666761D01*
X159634857Y-64714380D01*
X159539619Y-64714380D01*
X159396761Y-64666761D01*
X159301523Y-64571523D01*
X159253904Y-64476285D01*
X159206285Y-64285809D01*
X159206285Y-64142952D01*
X159253904Y-63952476D01*
X159301523Y-63857238D01*
X159396761Y-63762000D01*
X159539619Y-63714380D01*
X159634857Y-63714380D01*
X159777714Y-63762000D01*
X159825333Y-63809619D01*
X160777714Y-64714380D02*
X160206285Y-64714380D01*
X160492000Y-64714380D02*
X160492000Y-63714380D01*
X160396761Y-63857238D01*
X160301523Y-63952476D01*
X160206285Y-64000095D01*
%TO.C,C3*%
X166711333Y-68175142D02*
X166663714Y-68222761D01*
X166520857Y-68270380D01*
X166425619Y-68270380D01*
X166282761Y-68222761D01*
X166187523Y-68127523D01*
X166139904Y-68032285D01*
X166092285Y-67841809D01*
X166092285Y-67698952D01*
X166139904Y-67508476D01*
X166187523Y-67413238D01*
X166282761Y-67318000D01*
X166425619Y-67270380D01*
X166520857Y-67270380D01*
X166663714Y-67318000D01*
X166711333Y-67365619D01*
X167044666Y-67270380D02*
X167663714Y-67270380D01*
X167330380Y-67651333D01*
X167473238Y-67651333D01*
X167568476Y-67698952D01*
X167616095Y-67746571D01*
X167663714Y-67841809D01*
X167663714Y-68079904D01*
X167616095Y-68175142D01*
X167568476Y-68222761D01*
X167473238Y-68270380D01*
X167187523Y-68270380D01*
X167092285Y-68222761D01*
X167044666Y-68175142D01*
%TO.C,U1*%
X174228095Y-60902380D02*
X174228095Y-61711904D01*
X174275714Y-61807142D01*
X174323333Y-61854761D01*
X174418571Y-61902380D01*
X174609047Y-61902380D01*
X174704285Y-61854761D01*
X174751904Y-61807142D01*
X174799523Y-61711904D01*
X174799523Y-60902380D01*
X175799523Y-61902380D02*
X175228095Y-61902380D01*
X175513809Y-61902380D02*
X175513809Y-60902380D01*
X175418571Y-61045238D01*
X175323333Y-61140476D01*
X175228095Y-61188095D01*
X171551904Y-67750000D02*
X171647142Y-67797619D01*
X171790000Y-67797619D01*
X171932857Y-67750000D01*
X172028095Y-67654761D01*
X172075714Y-67559523D01*
X172123333Y-67369047D01*
X172123333Y-67226190D01*
X172075714Y-67035714D01*
X172028095Y-66940476D01*
X171932857Y-66845238D01*
X171790000Y-66797619D01*
X171694761Y-66797619D01*
X171551904Y-66845238D01*
X171504285Y-66892857D01*
X171504285Y-67226190D01*
X171694761Y-67226190D01*
X171075714Y-66797619D02*
X171075714Y-67797619D01*
X170504285Y-66797619D01*
X170504285Y-67797619D01*
X170028095Y-66797619D02*
X170028095Y-67797619D01*
X169790000Y-67797619D01*
X169647142Y-67750000D01*
X169551904Y-67654761D01*
X169504285Y-67559523D01*
X169456666Y-67369047D01*
X169456666Y-67226190D01*
X169504285Y-67035714D01*
X169551904Y-66940476D01*
X169647142Y-66845238D01*
X169790000Y-66797619D01*
X170028095Y-66797619D01*
X172123333Y-65197619D02*
X171790000Y-64197619D01*
X171456666Y-65197619D01*
X170551904Y-64292857D02*
X170599523Y-64245238D01*
X170742380Y-64197619D01*
X170837619Y-64197619D01*
X170980476Y-64245238D01*
X171075714Y-64340476D01*
X171123333Y-64435714D01*
X171170952Y-64626190D01*
X171170952Y-64769047D01*
X171123333Y-64959523D01*
X171075714Y-65054761D01*
X170980476Y-65150000D01*
X170837619Y-65197619D01*
X170742380Y-65197619D01*
X170599523Y-65150000D01*
X170551904Y-65102380D01*
X169551904Y-64292857D02*
X169599523Y-64245238D01*
X169742380Y-64197619D01*
X169837619Y-64197619D01*
X169980476Y-64245238D01*
X170075714Y-64340476D01*
X170123333Y-64435714D01*
X170170952Y-64626190D01*
X170170952Y-64769047D01*
X170123333Y-64959523D01*
X170075714Y-65054761D01*
X169980476Y-65150000D01*
X169837619Y-65197619D01*
X169742380Y-65197619D01*
X169599523Y-65150000D01*
X169551904Y-65102380D01*
%TO.C,R3*%
X163917333Y-69032380D02*
X163584000Y-68556190D01*
X163345904Y-69032380D02*
X163345904Y-68032380D01*
X163726857Y-68032380D01*
X163822095Y-68080000D01*
X163869714Y-68127619D01*
X163917333Y-68222857D01*
X163917333Y-68365714D01*
X163869714Y-68460952D01*
X163822095Y-68508571D01*
X163726857Y-68556190D01*
X163345904Y-68556190D01*
X164250666Y-68032380D02*
X164869714Y-68032380D01*
X164536380Y-68413333D01*
X164679238Y-68413333D01*
X164774476Y-68460952D01*
X164822095Y-68508571D01*
X164869714Y-68603809D01*
X164869714Y-68841904D01*
X164822095Y-68937142D01*
X164774476Y-68984761D01*
X164679238Y-69032380D01*
X164393523Y-69032380D01*
X164298285Y-68984761D01*
X164250666Y-68937142D01*
%TO.C,C2*%
X159853333Y-63349142D02*
X159805714Y-63396761D01*
X159662857Y-63444380D01*
X159567619Y-63444380D01*
X159424761Y-63396761D01*
X159329523Y-63301523D01*
X159281904Y-63206285D01*
X159234285Y-63015809D01*
X159234285Y-62872952D01*
X159281904Y-62682476D01*
X159329523Y-62587238D01*
X159424761Y-62492000D01*
X159567619Y-62444380D01*
X159662857Y-62444380D01*
X159805714Y-62492000D01*
X159853333Y-62539619D01*
X160234285Y-62539619D02*
X160281904Y-62492000D01*
X160377142Y-62444380D01*
X160615238Y-62444380D01*
X160710476Y-62492000D01*
X160758095Y-62539619D01*
X160805714Y-62634857D01*
X160805714Y-62730095D01*
X160758095Y-62872952D01*
X160186666Y-63444380D01*
X160805714Y-63444380D01*
%TO.C,R1*%
X163917333Y-67508380D02*
X163584000Y-67032190D01*
X163345904Y-67508380D02*
X163345904Y-66508380D01*
X163726857Y-66508380D01*
X163822095Y-66556000D01*
X163869714Y-66603619D01*
X163917333Y-66698857D01*
X163917333Y-66841714D01*
X163869714Y-66936952D01*
X163822095Y-66984571D01*
X163726857Y-67032190D01*
X163345904Y-67032190D01*
X164869714Y-67508380D02*
X164298285Y-67508380D01*
X164584000Y-67508380D02*
X164584000Y-66508380D01*
X164488761Y-66651238D01*
X164393523Y-66746476D01*
X164298285Y-66794095D01*
%TO.C,C4*%
X166711333Y-66905142D02*
X166663714Y-66952761D01*
X166520857Y-67000380D01*
X166425619Y-67000380D01*
X166282761Y-66952761D01*
X166187523Y-66857523D01*
X166139904Y-66762285D01*
X166092285Y-66571809D01*
X166092285Y-66428952D01*
X166139904Y-66238476D01*
X166187523Y-66143238D01*
X166282761Y-66048000D01*
X166425619Y-66000380D01*
X166520857Y-66000380D01*
X166663714Y-66048000D01*
X166711333Y-66095619D01*
X167568476Y-66333714D02*
X167568476Y-67000380D01*
X167330380Y-65952761D02*
X167092285Y-66667047D01*
X167711333Y-66667047D01*
%TO.C,R2*%
X163917333Y-70556380D02*
X163584000Y-70080190D01*
X163345904Y-70556380D02*
X163345904Y-69556380D01*
X163726857Y-69556380D01*
X163822095Y-69604000D01*
X163869714Y-69651619D01*
X163917333Y-69746857D01*
X163917333Y-69889714D01*
X163869714Y-69984952D01*
X163822095Y-70032571D01*
X163726857Y-70080190D01*
X163345904Y-70080190D01*
X164298285Y-69651619D02*
X164345904Y-69604000D01*
X164441142Y-69556380D01*
X164679238Y-69556380D01*
X164774476Y-69604000D01*
X164822095Y-69651619D01*
X164869714Y-69746857D01*
X164869714Y-69842095D01*
X164822095Y-69984952D01*
X164250666Y-70556380D01*
X164869714Y-70556380D01*
%TO.C,L2*%
X166711333Y-64460380D02*
X166235142Y-64460380D01*
X166235142Y-63460380D01*
X166997047Y-63555619D02*
X167044666Y-63508000D01*
X167139904Y-63460380D01*
X167378000Y-63460380D01*
X167473238Y-63508000D01*
X167520857Y-63555619D01*
X167568476Y-63650857D01*
X167568476Y-63746095D01*
X167520857Y-63888952D01*
X166949428Y-64460380D01*
X167568476Y-64460380D01*
%TO.C,L1*%
X166711333Y-65730380D02*
X166235142Y-65730380D01*
X166235142Y-64730380D01*
X167568476Y-65730380D02*
X166997047Y-65730380D01*
X167282761Y-65730380D02*
X167282761Y-64730380D01*
X167187523Y-64873238D01*
X167092285Y-64968476D01*
X166997047Y-65016095D01*
%TO.C,C6*%
X166711333Y-70715142D02*
X166663714Y-70762761D01*
X166520857Y-70810380D01*
X166425619Y-70810380D01*
X166282761Y-70762761D01*
X166187523Y-70667523D01*
X166139904Y-70572285D01*
X166092285Y-70381809D01*
X166092285Y-70238952D01*
X166139904Y-70048476D01*
X166187523Y-69953238D01*
X166282761Y-69858000D01*
X166425619Y-69810380D01*
X166520857Y-69810380D01*
X166663714Y-69858000D01*
X166711333Y-69905619D01*
X167568476Y-69810380D02*
X167378000Y-69810380D01*
X167282761Y-69858000D01*
X167235142Y-69905619D01*
X167139904Y-70048476D01*
X167092285Y-70238952D01*
X167092285Y-70619904D01*
X167139904Y-70715142D01*
X167187523Y-70762761D01*
X167282761Y-70810380D01*
X167473238Y-70810380D01*
X167568476Y-70762761D01*
X167616095Y-70715142D01*
X167663714Y-70619904D01*
X167663714Y-70381809D01*
X167616095Y-70286571D01*
X167568476Y-70238952D01*
X167473238Y-70191333D01*
X167282761Y-70191333D01*
X167187523Y-70238952D01*
X167139904Y-70286571D01*
X167092285Y-70381809D01*
%TO.C,C5*%
X166711333Y-69445142D02*
X166663714Y-69492761D01*
X166520857Y-69540380D01*
X166425619Y-69540380D01*
X166282761Y-69492761D01*
X166187523Y-69397523D01*
X166139904Y-69302285D01*
X166092285Y-69111809D01*
X166092285Y-68968952D01*
X166139904Y-68778476D01*
X166187523Y-68683238D01*
X166282761Y-68588000D01*
X166425619Y-68540380D01*
X166520857Y-68540380D01*
X166663714Y-68588000D01*
X166711333Y-68635619D01*
X167616095Y-68540380D02*
X167139904Y-68540380D01*
X167092285Y-69016571D01*
X167139904Y-68968952D01*
X167235142Y-68921333D01*
X167473238Y-68921333D01*
X167568476Y-68968952D01*
X167616095Y-69016571D01*
X167663714Y-69111809D01*
X167663714Y-69349904D01*
X167616095Y-69445142D01*
X167568476Y-69492761D01*
X167473238Y-69540380D01*
X167235142Y-69540380D01*
X167139904Y-69492761D01*
X167092285Y-69445142D01*
%TO.C,J1*%
X150666666Y-61772380D02*
X150666666Y-62486666D01*
X150619047Y-62629523D01*
X150523809Y-62724761D01*
X150380952Y-62772380D01*
X150285714Y-62772380D01*
X151666666Y-62772380D02*
X151095238Y-62772380D01*
X151380952Y-62772380D02*
X151380952Y-61772380D01*
X151285714Y-61915238D01*
X151190476Y-62010476D01*
X151095238Y-62058095D01*
D11*
%TO.C,C1*%
X162131836Y-64622000D02*
X161916164Y-64622000D01*
X162131836Y-63902000D02*
X161916164Y-63902000D01*
%TO.C,C3*%
X168774164Y-67458000D02*
X168989836Y-67458000D01*
X168774164Y-68178000D02*
X168989836Y-68178000D01*
%TO.C,U1*%
X171860000Y-68820000D02*
X171860000Y-72970000D01*
X172490000Y-68820000D02*
X171860000Y-68820000D01*
X172490000Y-78970000D02*
X178029999Y-78970000D01*
X172490000Y-68820000D02*
X172490000Y-63320000D01*
X174336667Y-63270000D02*
X172490001Y-63270000D01*
X176183333Y-63270000D02*
X176183333Y-63630000D01*
X174336667Y-63630000D02*
X174336667Y-63270000D01*
X178029999Y-78970000D02*
X178030000Y-63270000D01*
X171860000Y-72970000D02*
X172490000Y-72970000D01*
X176183333Y-63630000D02*
X174336667Y-63630000D01*
X172490000Y-72970000D02*
X172490000Y-78970000D01*
X178030000Y-63270000D02*
X176183333Y-63270000D01*
%TO.C,R3*%
X161898359Y-68960000D02*
X162205641Y-68960000D01*
X161898359Y-68200000D02*
X162205641Y-68200000D01*
%TO.C,C2*%
X162159836Y-63352000D02*
X161944164Y-63352000D01*
X162159836Y-62632000D02*
X161944164Y-62632000D01*
%TO.C,R1*%
X162203641Y-66676000D02*
X161896359Y-66676000D01*
X162203641Y-67436000D02*
X161896359Y-67436000D01*
%TO.C,C4*%
X168774164Y-66908000D02*
X168989836Y-66908000D01*
X168774164Y-66188000D02*
X168989836Y-66188000D01*
%TO.C,R2*%
X162207641Y-69724000D02*
X161900359Y-69724000D01*
X162207641Y-70484000D02*
X161900359Y-70484000D01*
%TO.C,C6*%
X168802164Y-70718000D02*
X169017836Y-70718000D01*
X168802164Y-69998000D02*
X169017836Y-69998000D01*
%TO.C,C5*%
X168774164Y-68728000D02*
X168989836Y-68728000D01*
X168774164Y-69448000D02*
X168989836Y-69448000D01*
%TO.C,J1*%
X139400000Y-71120000D02*
X138400000Y-72120000D01*
X150300000Y-75120000D02*
X150300000Y-77120000D01*
X142100000Y-75520000D02*
X142100000Y-77120000D01*
X150300000Y-66720000D02*
X150300000Y-65120000D01*
X142400000Y-79120000D02*
X148400000Y-79120000D01*
X142100000Y-65120000D02*
X142100000Y-67120000D01*
X153400000Y-79120000D02*
X153400000Y-63120000D01*
X139400000Y-71120000D02*
X138400000Y-70120000D01*
X123400000Y-63120000D02*
X117400000Y-63120000D01*
X118400000Y-79120000D02*
X110800000Y-79120000D01*
X122400000Y-79120000D02*
X128400000Y-79120000D01*
X110800000Y-79120000D02*
X110800000Y-63120000D01*
X151700000Y-79120000D02*
X153400000Y-79120000D01*
X133400000Y-63120000D02*
X127400000Y-63120000D01*
X153400000Y-63120000D02*
X147400000Y-63120000D01*
X143400000Y-63120000D02*
X137400000Y-63120000D01*
X139400000Y-71120000D02*
X136400000Y-71120000D01*
X150300000Y-65120000D02*
X142100000Y-65120000D01*
X113400000Y-63120000D02*
X110800000Y-63120000D01*
X142100000Y-67120000D02*
X141100000Y-67120000D01*
X150300000Y-77120000D02*
X142100000Y-77120000D01*
X132400000Y-79120000D02*
X138400000Y-79120000D01*
%TD*%
M02*
