%TF.GenerationSoftware,KiCad,Pcbnew,6.0.11-2627ca5db0~126~ubuntu20.04.1*%
%TF.CreationDate,2023-02-14T16:49:50+01:00*%
%TF.ProjectId,pmod_sfp,706d6f64-5f73-4667-902e-6b696361645f,rev?*%
%TF.SameCoordinates,Original*%
%TF.FileFunction,Drillmap*%
%TF.FilePolarity,Positive*%
%FSLAX45Y45*%
G04 Gerber Fmt 4.5, Leading zero omitted, Abs format (unit mm)*
G04 Created by KiCad (PCBNEW 6.0.11-2627ca5db0~126~ubuntu20.04.1) date 2023-02-14 16:49:50*
%MOMM*%
%LPD*%
G01*
G04 APERTURE LIST*
%ADD10C,0.100000*%
%ADD11C,0.200000*%
%ADD12C,0.040000*%
%ADD13C,0.080000*%
%ADD14C,0.085000*%
%ADD15C,0.095000*%
%ADD16C,0.105000*%
G04 APERTURE END LIST*
D10*
X17983200Y-8128000D02*
X11074400Y-8128000D01*
X11074400Y-8128000D02*
X11074400Y-6299200D01*
X11074400Y-6299200D02*
X11074400Y-6096000D01*
X11074400Y-6096000D02*
X17983200Y-6096000D01*
X17983200Y-6096000D02*
X17983200Y-8128000D01*
D11*
D12*
X14381800Y-7396800D02*
X14421800Y-7436800D01*
X14421800Y-7396800D02*
X14381800Y-7436800D01*
X14381800Y-7473000D02*
X14421800Y-7513000D01*
X14421800Y-7473000D02*
X14381800Y-7513000D01*
X14407200Y-6761800D02*
X14447200Y-6801800D01*
X14447200Y-6761800D02*
X14407200Y-6801800D01*
X14432600Y-7219000D02*
X14472600Y-7259000D01*
X14472600Y-7219000D02*
X14432600Y-7259000D01*
X14458000Y-6863400D02*
X14498000Y-6903400D01*
X14498000Y-6863400D02*
X14458000Y-6903400D01*
X14458000Y-7015800D02*
X14498000Y-7055800D01*
X14498000Y-7015800D02*
X14458000Y-7055800D01*
X14534200Y-6787200D02*
X14574200Y-6827200D01*
X14574200Y-6787200D02*
X14534200Y-6827200D01*
X14534200Y-7320600D02*
X14574200Y-7360600D01*
X14574200Y-7320600D02*
X14534200Y-7360600D01*
X14690044Y-7139285D02*
X14730044Y-7179285D01*
X14730044Y-7139285D02*
X14690044Y-7179285D01*
X14737400Y-7244400D02*
X14777400Y-7284400D01*
X14777400Y-7244400D02*
X14737400Y-7284400D01*
X14813600Y-7371400D02*
X14853600Y-7411400D01*
X14853600Y-7371400D02*
X14813600Y-7411400D01*
X14813600Y-7473000D02*
X14853600Y-7513000D01*
X14853600Y-7473000D02*
X14813600Y-7513000D01*
X15982000Y-6838000D02*
X16022000Y-6878000D01*
X16022000Y-6838000D02*
X15982000Y-6878000D01*
X16005737Y-6990590D02*
X16045737Y-7030590D01*
X16045737Y-6990590D02*
X16005737Y-7030590D01*
X16007400Y-6685600D02*
X16047400Y-6725600D01*
X16047400Y-6685600D02*
X16007400Y-6725600D01*
X16131600Y-6507800D02*
X16171600Y-6547800D01*
X16171600Y-6507800D02*
X16131600Y-6547800D01*
X16388830Y-7041630D02*
X16428830Y-7081630D01*
X16428830Y-7041630D02*
X16388830Y-7081630D01*
X16667800Y-6634800D02*
X16707800Y-6674800D01*
X16707800Y-6634800D02*
X16667800Y-6674800D01*
X16820200Y-7187350D02*
X16860200Y-7227350D01*
X16860200Y-7187350D02*
X16820200Y-7227350D01*
X16947200Y-7193600D02*
X16987200Y-7233600D01*
X16987200Y-7193600D02*
X16947200Y-7233600D01*
D13*
X17439000Y-6477000D02*
G75*
G03*
X17439000Y-6477000I-40000J0D01*
G01*
X17439000Y-6731000D02*
G75*
G03*
X17439000Y-6731000I-40000J0D01*
G01*
X17439000Y-6985000D02*
G75*
G03*
X17439000Y-6985000I-40000J0D01*
G01*
X17439000Y-7239000D02*
G75*
G03*
X17439000Y-7239000I-40000J0D01*
G01*
X17439000Y-7493000D02*
G75*
G03*
X17439000Y-7493000I-40000J0D01*
G01*
X17439000Y-7747000D02*
G75*
G03*
X17439000Y-7747000I-40000J0D01*
G01*
X17693000Y-6477000D02*
G75*
G03*
X17693000Y-6477000I-40000J0D01*
G01*
X17693000Y-6731000D02*
G75*
G03*
X17693000Y-6731000I-40000J0D01*
G01*
X17693000Y-6985000D02*
G75*
G03*
X17693000Y-6985000I-40000J0D01*
G01*
X17693000Y-7239000D02*
G75*
G03*
X17693000Y-7239000I-40000J0D01*
G01*
X17693000Y-7493000D02*
G75*
G03*
X17693000Y-7493000I-40000J0D01*
G01*
X17693000Y-7747000D02*
G75*
G03*
X17693000Y-7747000I-40000J0D01*
G01*
D14*
X14530000Y-6357000D02*
X14530000Y-6442000D01*
X14487500Y-6399500D02*
X14572500Y-6399500D01*
D15*
X13843588Y-6433088D02*
X13843588Y-6365912D01*
X13776412Y-6365912D01*
X13776412Y-6433088D01*
X13843588Y-6433088D01*
X13843588Y-7858088D02*
X13843588Y-7790912D01*
X13776412Y-7790912D01*
X13776412Y-7858088D01*
X13843588Y-7858088D01*
X14313588Y-6433088D02*
X14313588Y-6365912D01*
X14246412Y-6365912D01*
X14246412Y-6433088D01*
X14313588Y-6433088D01*
X14313588Y-7858088D02*
X14313588Y-7790912D01*
X14246412Y-7790912D01*
X14246412Y-7858088D01*
X14313588Y-7858088D01*
X14813588Y-6433088D02*
X14813588Y-6365912D01*
X14746412Y-6365912D01*
X14746412Y-6433088D01*
X14813588Y-6433088D01*
X14813588Y-7858088D02*
X14813588Y-7790912D01*
X14746412Y-7790912D01*
X14746412Y-7858088D01*
X14813588Y-7858088D01*
X15273588Y-6665588D02*
X15273588Y-6598412D01*
X15206412Y-6598412D01*
X15206412Y-6665588D01*
X15273588Y-6665588D01*
X15273588Y-7145588D02*
X15273588Y-7078412D01*
X15206412Y-7078412D01*
X15206412Y-7145588D01*
X15273588Y-7145588D01*
X15273588Y-7625588D02*
X15273588Y-7558412D01*
X15206412Y-7558412D01*
X15206412Y-7625588D01*
X15273588Y-7625588D01*
D16*
X11530000Y-6452000D02*
X11582500Y-6399500D01*
X11530000Y-6347000D01*
X11477500Y-6399500D01*
X11530000Y-6452000D01*
X11530000Y-7309500D02*
X11582500Y-7257000D01*
X11530000Y-7204500D01*
X11477500Y-7257000D01*
X11530000Y-7309500D01*
X12030000Y-7877000D02*
X12082500Y-7824500D01*
X12030000Y-7772000D01*
X11977500Y-7824500D01*
X12030000Y-7877000D01*
X12530000Y-6452000D02*
X12582500Y-6399500D01*
X12530000Y-6347000D01*
X12477500Y-6399500D01*
X12530000Y-6452000D01*
X13030000Y-7877000D02*
X13082500Y-7824500D01*
X13030000Y-7772000D01*
X12977500Y-7824500D01*
X13030000Y-7877000D01*
X13530000Y-6452000D02*
X13582500Y-6399500D01*
X13530000Y-6347000D01*
X13477500Y-6399500D01*
X13530000Y-6452000D01*
X13530000Y-7019500D02*
X13582500Y-6967000D01*
X13530000Y-6914500D01*
X13477500Y-6967000D01*
X13530000Y-7019500D01*
X13530000Y-7559500D02*
X13582500Y-7507000D01*
X13530000Y-7454500D01*
X13477500Y-7507000D01*
X13530000Y-7559500D01*
X14030000Y-7877000D02*
X14082500Y-7824500D01*
X14030000Y-7772000D01*
X13977500Y-7824500D01*
X14030000Y-7877000D01*
X15030000Y-7877000D02*
X15082500Y-7824500D01*
X15030000Y-7772000D01*
X14977500Y-7824500D01*
X15030000Y-7877000D01*
D11*
X11327019Y-8443476D02*
X11327019Y-8243476D01*
X11374638Y-8243476D01*
X11403209Y-8253000D01*
X11422257Y-8272048D01*
X11431781Y-8291095D01*
X11441305Y-8329190D01*
X11441305Y-8357762D01*
X11431781Y-8395857D01*
X11422257Y-8414905D01*
X11403209Y-8433952D01*
X11374638Y-8443476D01*
X11327019Y-8443476D01*
X11527019Y-8443476D02*
X11527019Y-8310143D01*
X11527019Y-8348238D02*
X11536543Y-8329190D01*
X11546067Y-8319667D01*
X11565114Y-8310143D01*
X11584162Y-8310143D01*
X11650828Y-8443476D02*
X11650828Y-8310143D01*
X11650828Y-8243476D02*
X11641305Y-8253000D01*
X11650828Y-8262524D01*
X11660352Y-8253000D01*
X11650828Y-8243476D01*
X11650828Y-8262524D01*
X11774638Y-8443476D02*
X11755590Y-8433952D01*
X11746067Y-8414905D01*
X11746067Y-8243476D01*
X11879400Y-8443476D02*
X11860352Y-8433952D01*
X11850828Y-8414905D01*
X11850828Y-8243476D01*
X12107971Y-8443476D02*
X12107971Y-8243476D01*
X12174638Y-8386333D01*
X12241305Y-8243476D01*
X12241305Y-8443476D01*
X12422257Y-8443476D02*
X12422257Y-8338714D01*
X12412733Y-8319667D01*
X12393686Y-8310143D01*
X12355590Y-8310143D01*
X12336543Y-8319667D01*
X12422257Y-8433952D02*
X12403209Y-8443476D01*
X12355590Y-8443476D01*
X12336543Y-8433952D01*
X12327019Y-8414905D01*
X12327019Y-8395857D01*
X12336543Y-8376809D01*
X12355590Y-8367286D01*
X12403209Y-8367286D01*
X12422257Y-8357762D01*
X12517495Y-8310143D02*
X12517495Y-8510143D01*
X12517495Y-8319667D02*
X12536543Y-8310143D01*
X12574638Y-8310143D01*
X12593686Y-8319667D01*
X12603209Y-8329190D01*
X12612733Y-8348238D01*
X12612733Y-8405381D01*
X12603209Y-8424429D01*
X12593686Y-8433952D01*
X12574638Y-8443476D01*
X12536543Y-8443476D01*
X12517495Y-8433952D01*
X12698448Y-8424429D02*
X12707971Y-8433952D01*
X12698448Y-8443476D01*
X12688924Y-8433952D01*
X12698448Y-8424429D01*
X12698448Y-8443476D01*
X12698448Y-8319667D02*
X12707971Y-8329190D01*
X12698448Y-8338714D01*
X12688924Y-8329190D01*
X12698448Y-8319667D01*
X12698448Y-8338714D01*
D12*
X11029400Y-8753000D02*
X11069400Y-8793000D01*
X11069400Y-8753000D02*
X11029400Y-8793000D01*
D11*
X11365114Y-8663476D02*
X11384162Y-8663476D01*
X11403209Y-8673000D01*
X11412733Y-8682524D01*
X11422257Y-8701571D01*
X11431781Y-8739667D01*
X11431781Y-8787286D01*
X11422257Y-8825381D01*
X11412733Y-8844429D01*
X11403209Y-8853952D01*
X11384162Y-8863476D01*
X11365114Y-8863476D01*
X11346067Y-8853952D01*
X11336543Y-8844429D01*
X11327019Y-8825381D01*
X11317495Y-8787286D01*
X11317495Y-8739667D01*
X11327019Y-8701571D01*
X11336543Y-8682524D01*
X11346067Y-8673000D01*
X11365114Y-8663476D01*
X11517495Y-8844429D02*
X11527019Y-8853952D01*
X11517495Y-8863476D01*
X11507971Y-8853952D01*
X11517495Y-8844429D01*
X11517495Y-8863476D01*
X11698448Y-8730143D02*
X11698448Y-8863476D01*
X11650828Y-8653952D02*
X11603209Y-8796810D01*
X11727019Y-8796810D01*
X11841305Y-8663476D02*
X11860352Y-8663476D01*
X11879400Y-8673000D01*
X11888924Y-8682524D01*
X11898448Y-8701571D01*
X11907971Y-8739667D01*
X11907971Y-8787286D01*
X11898448Y-8825381D01*
X11888924Y-8844429D01*
X11879400Y-8853952D01*
X11860352Y-8863476D01*
X11841305Y-8863476D01*
X11822257Y-8853952D01*
X11812733Y-8844429D01*
X11803209Y-8825381D01*
X11793686Y-8787286D01*
X11793686Y-8739667D01*
X11803209Y-8701571D01*
X11812733Y-8682524D01*
X11822257Y-8673000D01*
X11841305Y-8663476D01*
X12031781Y-8663476D02*
X12050828Y-8663476D01*
X12069876Y-8673000D01*
X12079400Y-8682524D01*
X12088924Y-8701571D01*
X12098448Y-8739667D01*
X12098448Y-8787286D01*
X12088924Y-8825381D01*
X12079400Y-8844429D01*
X12069876Y-8853952D01*
X12050828Y-8863476D01*
X12031781Y-8863476D01*
X12012733Y-8853952D01*
X12003209Y-8844429D01*
X11993686Y-8825381D01*
X11984162Y-8787286D01*
X11984162Y-8739667D01*
X11993686Y-8701571D01*
X12003209Y-8682524D01*
X12012733Y-8673000D01*
X12031781Y-8663476D01*
X12184162Y-8863476D02*
X12184162Y-8730143D01*
X12184162Y-8749190D02*
X12193686Y-8739667D01*
X12212733Y-8730143D01*
X12241305Y-8730143D01*
X12260352Y-8739667D01*
X12269876Y-8758714D01*
X12269876Y-8863476D01*
X12269876Y-8758714D02*
X12279400Y-8739667D01*
X12298448Y-8730143D01*
X12327019Y-8730143D01*
X12346067Y-8739667D01*
X12355590Y-8758714D01*
X12355590Y-8863476D01*
X12450828Y-8863476D02*
X12450828Y-8730143D01*
X12450828Y-8749190D02*
X12460352Y-8739667D01*
X12479400Y-8730143D01*
X12507971Y-8730143D01*
X12527019Y-8739667D01*
X12536543Y-8758714D01*
X12536543Y-8863476D01*
X12536543Y-8758714D02*
X12546067Y-8739667D01*
X12565114Y-8730143D01*
X12593686Y-8730143D01*
X12612733Y-8739667D01*
X12622257Y-8758714D01*
X12622257Y-8863476D01*
X13012733Y-8653952D02*
X12841305Y-8911095D01*
X13269876Y-8663476D02*
X13288924Y-8663476D01*
X13307971Y-8673000D01*
X13317495Y-8682524D01*
X13327019Y-8701571D01*
X13336543Y-8739667D01*
X13336543Y-8787286D01*
X13327019Y-8825381D01*
X13317495Y-8844429D01*
X13307971Y-8853952D01*
X13288924Y-8863476D01*
X13269876Y-8863476D01*
X13250828Y-8853952D01*
X13241305Y-8844429D01*
X13231781Y-8825381D01*
X13222257Y-8787286D01*
X13222257Y-8739667D01*
X13231781Y-8701571D01*
X13241305Y-8682524D01*
X13250828Y-8673000D01*
X13269876Y-8663476D01*
X13422257Y-8844429D02*
X13431781Y-8853952D01*
X13422257Y-8863476D01*
X13412733Y-8853952D01*
X13422257Y-8844429D01*
X13422257Y-8863476D01*
X13555590Y-8663476D02*
X13574638Y-8663476D01*
X13593686Y-8673000D01*
X13603209Y-8682524D01*
X13612733Y-8701571D01*
X13622257Y-8739667D01*
X13622257Y-8787286D01*
X13612733Y-8825381D01*
X13603209Y-8844429D01*
X13593686Y-8853952D01*
X13574638Y-8863476D01*
X13555590Y-8863476D01*
X13536543Y-8853952D01*
X13527019Y-8844429D01*
X13517495Y-8825381D01*
X13507971Y-8787286D01*
X13507971Y-8739667D01*
X13517495Y-8701571D01*
X13527019Y-8682524D01*
X13536543Y-8673000D01*
X13555590Y-8663476D01*
X13812733Y-8863476D02*
X13698448Y-8863476D01*
X13755590Y-8863476D02*
X13755590Y-8663476D01*
X13736543Y-8692048D01*
X13717495Y-8711095D01*
X13698448Y-8720619D01*
X13993686Y-8663476D02*
X13898448Y-8663476D01*
X13888924Y-8758714D01*
X13898448Y-8749190D01*
X13917495Y-8739667D01*
X13965114Y-8739667D01*
X13984162Y-8749190D01*
X13993686Y-8758714D01*
X14003209Y-8777762D01*
X14003209Y-8825381D01*
X13993686Y-8844429D01*
X13984162Y-8853952D01*
X13965114Y-8863476D01*
X13917495Y-8863476D01*
X13898448Y-8853952D01*
X13888924Y-8844429D01*
X14069876Y-8663476D02*
X14203209Y-8663476D01*
X14117495Y-8863476D01*
X14269876Y-8663476D02*
X14269876Y-8701571D01*
X14346067Y-8663476D02*
X14346067Y-8701571D01*
X14641305Y-8939667D02*
X14631781Y-8930143D01*
X14612733Y-8901571D01*
X14603209Y-8882524D01*
X14593686Y-8853952D01*
X14584162Y-8806333D01*
X14584162Y-8768238D01*
X14593686Y-8720619D01*
X14603209Y-8692048D01*
X14612733Y-8673000D01*
X14631781Y-8644429D01*
X14641305Y-8634905D01*
X14707971Y-8682524D02*
X14717495Y-8673000D01*
X14736543Y-8663476D01*
X14784162Y-8663476D01*
X14803209Y-8673000D01*
X14812733Y-8682524D01*
X14822257Y-8701571D01*
X14822257Y-8720619D01*
X14812733Y-8749190D01*
X14698448Y-8863476D01*
X14822257Y-8863476D01*
X14946067Y-8663476D02*
X14965114Y-8663476D01*
X14984162Y-8673000D01*
X14993686Y-8682524D01*
X15003209Y-8701571D01*
X15012733Y-8739667D01*
X15012733Y-8787286D01*
X15003209Y-8825381D01*
X14993686Y-8844429D01*
X14984162Y-8853952D01*
X14965114Y-8863476D01*
X14946067Y-8863476D01*
X14927019Y-8853952D01*
X14917495Y-8844429D01*
X14907971Y-8825381D01*
X14898448Y-8787286D01*
X14898448Y-8739667D01*
X14907971Y-8701571D01*
X14917495Y-8682524D01*
X14927019Y-8673000D01*
X14946067Y-8663476D01*
X15250828Y-8863476D02*
X15250828Y-8663476D01*
X15336543Y-8863476D02*
X15336543Y-8758714D01*
X15327019Y-8739667D01*
X15307971Y-8730143D01*
X15279400Y-8730143D01*
X15260352Y-8739667D01*
X15250828Y-8749190D01*
X15460352Y-8863476D02*
X15441305Y-8853952D01*
X15431781Y-8844429D01*
X15422257Y-8825381D01*
X15422257Y-8768238D01*
X15431781Y-8749190D01*
X15441305Y-8739667D01*
X15460352Y-8730143D01*
X15488924Y-8730143D01*
X15507971Y-8739667D01*
X15517495Y-8749190D01*
X15527019Y-8768238D01*
X15527019Y-8825381D01*
X15517495Y-8844429D01*
X15507971Y-8853952D01*
X15488924Y-8863476D01*
X15460352Y-8863476D01*
X15641305Y-8863476D02*
X15622257Y-8853952D01*
X15612733Y-8834905D01*
X15612733Y-8663476D01*
X15793686Y-8853952D02*
X15774638Y-8863476D01*
X15736543Y-8863476D01*
X15717495Y-8853952D01*
X15707971Y-8834905D01*
X15707971Y-8758714D01*
X15717495Y-8739667D01*
X15736543Y-8730143D01*
X15774638Y-8730143D01*
X15793686Y-8739667D01*
X15803209Y-8758714D01*
X15803209Y-8777762D01*
X15707971Y-8796810D01*
X15879400Y-8853952D02*
X15898448Y-8863476D01*
X15936543Y-8863476D01*
X15955590Y-8853952D01*
X15965114Y-8834905D01*
X15965114Y-8825381D01*
X15955590Y-8806333D01*
X15936543Y-8796810D01*
X15907971Y-8796810D01*
X15888924Y-8787286D01*
X15879400Y-8768238D01*
X15879400Y-8758714D01*
X15888924Y-8739667D01*
X15907971Y-8730143D01*
X15936543Y-8730143D01*
X15955590Y-8739667D01*
X16031781Y-8939667D02*
X16041305Y-8930143D01*
X16060352Y-8901571D01*
X16069876Y-8882524D01*
X16079400Y-8853952D01*
X16088924Y-8806333D01*
X16088924Y-8768238D01*
X16079400Y-8720619D01*
X16069876Y-8692048D01*
X16060352Y-8673000D01*
X16041305Y-8644429D01*
X16031781Y-8634905D01*
D13*
X11069400Y-9037000D02*
G75*
G03*
X11069400Y-9037000I-40000J0D01*
G01*
D11*
X11365114Y-8927476D02*
X11384162Y-8927476D01*
X11403209Y-8937000D01*
X11412733Y-8946524D01*
X11422257Y-8965571D01*
X11431781Y-9003667D01*
X11431781Y-9051286D01*
X11422257Y-9089381D01*
X11412733Y-9108429D01*
X11403209Y-9117952D01*
X11384162Y-9127476D01*
X11365114Y-9127476D01*
X11346067Y-9117952D01*
X11336543Y-9108429D01*
X11327019Y-9089381D01*
X11317495Y-9051286D01*
X11317495Y-9003667D01*
X11327019Y-8965571D01*
X11336543Y-8946524D01*
X11346067Y-8937000D01*
X11365114Y-8927476D01*
X11517495Y-9108429D02*
X11527019Y-9117952D01*
X11517495Y-9127476D01*
X11507971Y-9117952D01*
X11517495Y-9108429D01*
X11517495Y-9127476D01*
X11641305Y-9013190D02*
X11622257Y-9003667D01*
X11612733Y-8994143D01*
X11603209Y-8975095D01*
X11603209Y-8965571D01*
X11612733Y-8946524D01*
X11622257Y-8937000D01*
X11641305Y-8927476D01*
X11679400Y-8927476D01*
X11698448Y-8937000D01*
X11707971Y-8946524D01*
X11717495Y-8965571D01*
X11717495Y-8975095D01*
X11707971Y-8994143D01*
X11698448Y-9003667D01*
X11679400Y-9013190D01*
X11641305Y-9013190D01*
X11622257Y-9022714D01*
X11612733Y-9032238D01*
X11603209Y-9051286D01*
X11603209Y-9089381D01*
X11612733Y-9108429D01*
X11622257Y-9117952D01*
X11641305Y-9127476D01*
X11679400Y-9127476D01*
X11698448Y-9117952D01*
X11707971Y-9108429D01*
X11717495Y-9089381D01*
X11717495Y-9051286D01*
X11707971Y-9032238D01*
X11698448Y-9022714D01*
X11679400Y-9013190D01*
X11841305Y-8927476D02*
X11860352Y-8927476D01*
X11879400Y-8937000D01*
X11888924Y-8946524D01*
X11898448Y-8965571D01*
X11907971Y-9003667D01*
X11907971Y-9051286D01*
X11898448Y-9089381D01*
X11888924Y-9108429D01*
X11879400Y-9117952D01*
X11860352Y-9127476D01*
X11841305Y-9127476D01*
X11822257Y-9117952D01*
X11812733Y-9108429D01*
X11803209Y-9089381D01*
X11793686Y-9051286D01*
X11793686Y-9003667D01*
X11803209Y-8965571D01*
X11812733Y-8946524D01*
X11822257Y-8937000D01*
X11841305Y-8927476D01*
X12031781Y-8927476D02*
X12050828Y-8927476D01*
X12069876Y-8937000D01*
X12079400Y-8946524D01*
X12088924Y-8965571D01*
X12098448Y-9003667D01*
X12098448Y-9051286D01*
X12088924Y-9089381D01*
X12079400Y-9108429D01*
X12069876Y-9117952D01*
X12050828Y-9127476D01*
X12031781Y-9127476D01*
X12012733Y-9117952D01*
X12003209Y-9108429D01*
X11993686Y-9089381D01*
X11984162Y-9051286D01*
X11984162Y-9003667D01*
X11993686Y-8965571D01*
X12003209Y-8946524D01*
X12012733Y-8937000D01*
X12031781Y-8927476D01*
X12184162Y-9127476D02*
X12184162Y-8994143D01*
X12184162Y-9013190D02*
X12193686Y-9003667D01*
X12212733Y-8994143D01*
X12241305Y-8994143D01*
X12260352Y-9003667D01*
X12269876Y-9022714D01*
X12269876Y-9127476D01*
X12269876Y-9022714D02*
X12279400Y-9003667D01*
X12298448Y-8994143D01*
X12327019Y-8994143D01*
X12346067Y-9003667D01*
X12355590Y-9022714D01*
X12355590Y-9127476D01*
X12450828Y-9127476D02*
X12450828Y-8994143D01*
X12450828Y-9013190D02*
X12460352Y-9003667D01*
X12479400Y-8994143D01*
X12507971Y-8994143D01*
X12527019Y-9003667D01*
X12536543Y-9022714D01*
X12536543Y-9127476D01*
X12536543Y-9022714D02*
X12546067Y-9003667D01*
X12565114Y-8994143D01*
X12593686Y-8994143D01*
X12612733Y-9003667D01*
X12622257Y-9022714D01*
X12622257Y-9127476D01*
X13012733Y-8917952D02*
X12841305Y-9175095D01*
X13269876Y-8927476D02*
X13288924Y-8927476D01*
X13307971Y-8937000D01*
X13317495Y-8946524D01*
X13327019Y-8965571D01*
X13336543Y-9003667D01*
X13336543Y-9051286D01*
X13327019Y-9089381D01*
X13317495Y-9108429D01*
X13307971Y-9117952D01*
X13288924Y-9127476D01*
X13269876Y-9127476D01*
X13250828Y-9117952D01*
X13241305Y-9108429D01*
X13231781Y-9089381D01*
X13222257Y-9051286D01*
X13222257Y-9003667D01*
X13231781Y-8965571D01*
X13241305Y-8946524D01*
X13250828Y-8937000D01*
X13269876Y-8927476D01*
X13422257Y-9108429D02*
X13431781Y-9117952D01*
X13422257Y-9127476D01*
X13412733Y-9117952D01*
X13422257Y-9108429D01*
X13422257Y-9127476D01*
X13555590Y-8927476D02*
X13574638Y-8927476D01*
X13593686Y-8937000D01*
X13603209Y-8946524D01*
X13612733Y-8965571D01*
X13622257Y-9003667D01*
X13622257Y-9051286D01*
X13612733Y-9089381D01*
X13603209Y-9108429D01*
X13593686Y-9117952D01*
X13574638Y-9127476D01*
X13555590Y-9127476D01*
X13536543Y-9117952D01*
X13527019Y-9108429D01*
X13517495Y-9089381D01*
X13507971Y-9051286D01*
X13507971Y-9003667D01*
X13517495Y-8965571D01*
X13527019Y-8946524D01*
X13536543Y-8937000D01*
X13555590Y-8927476D01*
X13688924Y-8927476D02*
X13812733Y-8927476D01*
X13746067Y-9003667D01*
X13774638Y-9003667D01*
X13793686Y-9013190D01*
X13803209Y-9022714D01*
X13812733Y-9041762D01*
X13812733Y-9089381D01*
X13803209Y-9108429D01*
X13793686Y-9117952D01*
X13774638Y-9127476D01*
X13717495Y-9127476D01*
X13698448Y-9117952D01*
X13688924Y-9108429D01*
X14003209Y-9127476D02*
X13888924Y-9127476D01*
X13946067Y-9127476D02*
X13946067Y-8927476D01*
X13927019Y-8956048D01*
X13907971Y-8975095D01*
X13888924Y-8984619D01*
X14184162Y-8927476D02*
X14088924Y-8927476D01*
X14079400Y-9022714D01*
X14088924Y-9013190D01*
X14107971Y-9003667D01*
X14155590Y-9003667D01*
X14174638Y-9013190D01*
X14184162Y-9022714D01*
X14193686Y-9041762D01*
X14193686Y-9089381D01*
X14184162Y-9108429D01*
X14174638Y-9117952D01*
X14155590Y-9127476D01*
X14107971Y-9127476D01*
X14088924Y-9117952D01*
X14079400Y-9108429D01*
X14269876Y-8927476D02*
X14269876Y-8965571D01*
X14346067Y-8927476D02*
X14346067Y-8965571D01*
X14641305Y-9203667D02*
X14631781Y-9194143D01*
X14612733Y-9165571D01*
X14603209Y-9146524D01*
X14593686Y-9117952D01*
X14584162Y-9070333D01*
X14584162Y-9032238D01*
X14593686Y-8984619D01*
X14603209Y-8956048D01*
X14612733Y-8937000D01*
X14631781Y-8908429D01*
X14641305Y-8898905D01*
X14822257Y-9127476D02*
X14707971Y-9127476D01*
X14765114Y-9127476D02*
X14765114Y-8927476D01*
X14746067Y-8956048D01*
X14727019Y-8975095D01*
X14707971Y-8984619D01*
X14898448Y-8946524D02*
X14907971Y-8937000D01*
X14927019Y-8927476D01*
X14974638Y-8927476D01*
X14993686Y-8937000D01*
X15003209Y-8946524D01*
X15012733Y-8965571D01*
X15012733Y-8984619D01*
X15003209Y-9013190D01*
X14888924Y-9127476D01*
X15012733Y-9127476D01*
X15250828Y-9127476D02*
X15250828Y-8927476D01*
X15336543Y-9127476D02*
X15336543Y-9022714D01*
X15327019Y-9003667D01*
X15307971Y-8994143D01*
X15279400Y-8994143D01*
X15260352Y-9003667D01*
X15250828Y-9013190D01*
X15460352Y-9127476D02*
X15441305Y-9117952D01*
X15431781Y-9108429D01*
X15422257Y-9089381D01*
X15422257Y-9032238D01*
X15431781Y-9013190D01*
X15441305Y-9003667D01*
X15460352Y-8994143D01*
X15488924Y-8994143D01*
X15507971Y-9003667D01*
X15517495Y-9013190D01*
X15527019Y-9032238D01*
X15527019Y-9089381D01*
X15517495Y-9108429D01*
X15507971Y-9117952D01*
X15488924Y-9127476D01*
X15460352Y-9127476D01*
X15641305Y-9127476D02*
X15622257Y-9117952D01*
X15612733Y-9098905D01*
X15612733Y-8927476D01*
X15793686Y-9117952D02*
X15774638Y-9127476D01*
X15736543Y-9127476D01*
X15717495Y-9117952D01*
X15707971Y-9098905D01*
X15707971Y-9022714D01*
X15717495Y-9003667D01*
X15736543Y-8994143D01*
X15774638Y-8994143D01*
X15793686Y-9003667D01*
X15803209Y-9022714D01*
X15803209Y-9041762D01*
X15707971Y-9060810D01*
X15879400Y-9117952D02*
X15898448Y-9127476D01*
X15936543Y-9127476D01*
X15955590Y-9117952D01*
X15965114Y-9098905D01*
X15965114Y-9089381D01*
X15955590Y-9070333D01*
X15936543Y-9060810D01*
X15907971Y-9060810D01*
X15888924Y-9051286D01*
X15879400Y-9032238D01*
X15879400Y-9022714D01*
X15888924Y-9003667D01*
X15907971Y-8994143D01*
X15936543Y-8994143D01*
X15955590Y-9003667D01*
X16031781Y-9203667D02*
X16041305Y-9194143D01*
X16060352Y-9165571D01*
X16069876Y-9146524D01*
X16079400Y-9117952D01*
X16088924Y-9070333D01*
X16088924Y-9032238D01*
X16079400Y-8984619D01*
X16069876Y-8956048D01*
X16060352Y-8937000D01*
X16041305Y-8908429D01*
X16031781Y-8898905D01*
D14*
X11026900Y-9258500D02*
X11026900Y-9343500D01*
X10984400Y-9301000D02*
X11069400Y-9301000D01*
D11*
X11365114Y-9191476D02*
X11384162Y-9191476D01*
X11403209Y-9201000D01*
X11412733Y-9210524D01*
X11422257Y-9229571D01*
X11431781Y-9267667D01*
X11431781Y-9315286D01*
X11422257Y-9353381D01*
X11412733Y-9372429D01*
X11403209Y-9381952D01*
X11384162Y-9391476D01*
X11365114Y-9391476D01*
X11346067Y-9381952D01*
X11336543Y-9372429D01*
X11327019Y-9353381D01*
X11317495Y-9315286D01*
X11317495Y-9267667D01*
X11327019Y-9229571D01*
X11336543Y-9210524D01*
X11346067Y-9201000D01*
X11365114Y-9191476D01*
X11517495Y-9372429D02*
X11527019Y-9381952D01*
X11517495Y-9391476D01*
X11507971Y-9381952D01*
X11517495Y-9372429D01*
X11517495Y-9391476D01*
X11641305Y-9277190D02*
X11622257Y-9267667D01*
X11612733Y-9258143D01*
X11603209Y-9239095D01*
X11603209Y-9229571D01*
X11612733Y-9210524D01*
X11622257Y-9201000D01*
X11641305Y-9191476D01*
X11679400Y-9191476D01*
X11698448Y-9201000D01*
X11707971Y-9210524D01*
X11717495Y-9229571D01*
X11717495Y-9239095D01*
X11707971Y-9258143D01*
X11698448Y-9267667D01*
X11679400Y-9277190D01*
X11641305Y-9277190D01*
X11622257Y-9286714D01*
X11612733Y-9296238D01*
X11603209Y-9315286D01*
X11603209Y-9353381D01*
X11612733Y-9372429D01*
X11622257Y-9381952D01*
X11641305Y-9391476D01*
X11679400Y-9391476D01*
X11698448Y-9381952D01*
X11707971Y-9372429D01*
X11717495Y-9353381D01*
X11717495Y-9315286D01*
X11707971Y-9296238D01*
X11698448Y-9286714D01*
X11679400Y-9277190D01*
X11898448Y-9191476D02*
X11803209Y-9191476D01*
X11793686Y-9286714D01*
X11803209Y-9277190D01*
X11822257Y-9267667D01*
X11869876Y-9267667D01*
X11888924Y-9277190D01*
X11898448Y-9286714D01*
X11907971Y-9305762D01*
X11907971Y-9353381D01*
X11898448Y-9372429D01*
X11888924Y-9381952D01*
X11869876Y-9391476D01*
X11822257Y-9391476D01*
X11803209Y-9381952D01*
X11793686Y-9372429D01*
X12031781Y-9191476D02*
X12050828Y-9191476D01*
X12069876Y-9201000D01*
X12079400Y-9210524D01*
X12088924Y-9229571D01*
X12098448Y-9267667D01*
X12098448Y-9315286D01*
X12088924Y-9353381D01*
X12079400Y-9372429D01*
X12069876Y-9381952D01*
X12050828Y-9391476D01*
X12031781Y-9391476D01*
X12012733Y-9381952D01*
X12003209Y-9372429D01*
X11993686Y-9353381D01*
X11984162Y-9315286D01*
X11984162Y-9267667D01*
X11993686Y-9229571D01*
X12003209Y-9210524D01*
X12012733Y-9201000D01*
X12031781Y-9191476D01*
X12184162Y-9391476D02*
X12184162Y-9258143D01*
X12184162Y-9277190D02*
X12193686Y-9267667D01*
X12212733Y-9258143D01*
X12241305Y-9258143D01*
X12260352Y-9267667D01*
X12269876Y-9286714D01*
X12269876Y-9391476D01*
X12269876Y-9286714D02*
X12279400Y-9267667D01*
X12298448Y-9258143D01*
X12327019Y-9258143D01*
X12346067Y-9267667D01*
X12355590Y-9286714D01*
X12355590Y-9391476D01*
X12450828Y-9391476D02*
X12450828Y-9258143D01*
X12450828Y-9277190D02*
X12460352Y-9267667D01*
X12479400Y-9258143D01*
X12507971Y-9258143D01*
X12527019Y-9267667D01*
X12536543Y-9286714D01*
X12536543Y-9391476D01*
X12536543Y-9286714D02*
X12546067Y-9267667D01*
X12565114Y-9258143D01*
X12593686Y-9258143D01*
X12612733Y-9267667D01*
X12622257Y-9286714D01*
X12622257Y-9391476D01*
X13012733Y-9181952D02*
X12841305Y-9439095D01*
X13269876Y-9191476D02*
X13288924Y-9191476D01*
X13307971Y-9201000D01*
X13317495Y-9210524D01*
X13327019Y-9229571D01*
X13336543Y-9267667D01*
X13336543Y-9315286D01*
X13327019Y-9353381D01*
X13317495Y-9372429D01*
X13307971Y-9381952D01*
X13288924Y-9391476D01*
X13269876Y-9391476D01*
X13250828Y-9381952D01*
X13241305Y-9372429D01*
X13231781Y-9353381D01*
X13222257Y-9315286D01*
X13222257Y-9267667D01*
X13231781Y-9229571D01*
X13241305Y-9210524D01*
X13250828Y-9201000D01*
X13269876Y-9191476D01*
X13422257Y-9372429D02*
X13431781Y-9381952D01*
X13422257Y-9391476D01*
X13412733Y-9381952D01*
X13422257Y-9372429D01*
X13422257Y-9391476D01*
X13555590Y-9191476D02*
X13574638Y-9191476D01*
X13593686Y-9201000D01*
X13603209Y-9210524D01*
X13612733Y-9229571D01*
X13622257Y-9267667D01*
X13622257Y-9315286D01*
X13612733Y-9353381D01*
X13603209Y-9372429D01*
X13593686Y-9381952D01*
X13574638Y-9391476D01*
X13555590Y-9391476D01*
X13536543Y-9381952D01*
X13527019Y-9372429D01*
X13517495Y-9353381D01*
X13507971Y-9315286D01*
X13507971Y-9267667D01*
X13517495Y-9229571D01*
X13527019Y-9210524D01*
X13536543Y-9201000D01*
X13555590Y-9191476D01*
X13688924Y-9191476D02*
X13812733Y-9191476D01*
X13746067Y-9267667D01*
X13774638Y-9267667D01*
X13793686Y-9277190D01*
X13803209Y-9286714D01*
X13812733Y-9305762D01*
X13812733Y-9353381D01*
X13803209Y-9372429D01*
X13793686Y-9381952D01*
X13774638Y-9391476D01*
X13717495Y-9391476D01*
X13698448Y-9381952D01*
X13688924Y-9372429D01*
X13879400Y-9191476D02*
X14003209Y-9191476D01*
X13936543Y-9267667D01*
X13965114Y-9267667D01*
X13984162Y-9277190D01*
X13993686Y-9286714D01*
X14003209Y-9305762D01*
X14003209Y-9353381D01*
X13993686Y-9372429D01*
X13984162Y-9381952D01*
X13965114Y-9391476D01*
X13907971Y-9391476D01*
X13888924Y-9381952D01*
X13879400Y-9372429D01*
X14184162Y-9191476D02*
X14088924Y-9191476D01*
X14079400Y-9286714D01*
X14088924Y-9277190D01*
X14107971Y-9267667D01*
X14155590Y-9267667D01*
X14174638Y-9277190D01*
X14184162Y-9286714D01*
X14193686Y-9305762D01*
X14193686Y-9353381D01*
X14184162Y-9372429D01*
X14174638Y-9381952D01*
X14155590Y-9391476D01*
X14107971Y-9391476D01*
X14088924Y-9381952D01*
X14079400Y-9372429D01*
X14269876Y-9191476D02*
X14269876Y-9229571D01*
X14346067Y-9191476D02*
X14346067Y-9229571D01*
X14641305Y-9467667D02*
X14631781Y-9458143D01*
X14612733Y-9429571D01*
X14603209Y-9410524D01*
X14593686Y-9381952D01*
X14584162Y-9334333D01*
X14584162Y-9296238D01*
X14593686Y-9248619D01*
X14603209Y-9220048D01*
X14612733Y-9201000D01*
X14631781Y-9172429D01*
X14641305Y-9162905D01*
X14822257Y-9391476D02*
X14707971Y-9391476D01*
X14765114Y-9391476D02*
X14765114Y-9191476D01*
X14746067Y-9220048D01*
X14727019Y-9239095D01*
X14707971Y-9248619D01*
X15060352Y-9391476D02*
X15060352Y-9191476D01*
X15146067Y-9391476D02*
X15146067Y-9286714D01*
X15136543Y-9267667D01*
X15117495Y-9258143D01*
X15088924Y-9258143D01*
X15069876Y-9267667D01*
X15060352Y-9277190D01*
X15269876Y-9391476D02*
X15250828Y-9381952D01*
X15241305Y-9372429D01*
X15231781Y-9353381D01*
X15231781Y-9296238D01*
X15241305Y-9277190D01*
X15250828Y-9267667D01*
X15269876Y-9258143D01*
X15298448Y-9258143D01*
X15317495Y-9267667D01*
X15327019Y-9277190D01*
X15336543Y-9296238D01*
X15336543Y-9353381D01*
X15327019Y-9372429D01*
X15317495Y-9381952D01*
X15298448Y-9391476D01*
X15269876Y-9391476D01*
X15450828Y-9391476D02*
X15431781Y-9381952D01*
X15422257Y-9362905D01*
X15422257Y-9191476D01*
X15603209Y-9381952D02*
X15584162Y-9391476D01*
X15546067Y-9391476D01*
X15527019Y-9381952D01*
X15517495Y-9362905D01*
X15517495Y-9286714D01*
X15527019Y-9267667D01*
X15546067Y-9258143D01*
X15584162Y-9258143D01*
X15603209Y-9267667D01*
X15612733Y-9286714D01*
X15612733Y-9305762D01*
X15517495Y-9324810D01*
X15679400Y-9467667D02*
X15688924Y-9458143D01*
X15707971Y-9429571D01*
X15717495Y-9410524D01*
X15727019Y-9381952D01*
X15736543Y-9334333D01*
X15736543Y-9296238D01*
X15727019Y-9248619D01*
X15717495Y-9220048D01*
X15707971Y-9201000D01*
X15688924Y-9172429D01*
X15679400Y-9162905D01*
D15*
X11055488Y-9598588D02*
X11055488Y-9531412D01*
X10988312Y-9531412D01*
X10988312Y-9598588D01*
X11055488Y-9598588D01*
D11*
X11365114Y-9455476D02*
X11384162Y-9455476D01*
X11403209Y-9465000D01*
X11412733Y-9474524D01*
X11422257Y-9493571D01*
X11431781Y-9531667D01*
X11431781Y-9579286D01*
X11422257Y-9617381D01*
X11412733Y-9636429D01*
X11403209Y-9645952D01*
X11384162Y-9655476D01*
X11365114Y-9655476D01*
X11346067Y-9645952D01*
X11336543Y-9636429D01*
X11327019Y-9617381D01*
X11317495Y-9579286D01*
X11317495Y-9531667D01*
X11327019Y-9493571D01*
X11336543Y-9474524D01*
X11346067Y-9465000D01*
X11365114Y-9455476D01*
X11517495Y-9636429D02*
X11527019Y-9645952D01*
X11517495Y-9655476D01*
X11507971Y-9645952D01*
X11517495Y-9636429D01*
X11517495Y-9655476D01*
X11622257Y-9655476D02*
X11660352Y-9655476D01*
X11679400Y-9645952D01*
X11688924Y-9636429D01*
X11707971Y-9607857D01*
X11717495Y-9569762D01*
X11717495Y-9493571D01*
X11707971Y-9474524D01*
X11698448Y-9465000D01*
X11679400Y-9455476D01*
X11641305Y-9455476D01*
X11622257Y-9465000D01*
X11612733Y-9474524D01*
X11603209Y-9493571D01*
X11603209Y-9541190D01*
X11612733Y-9560238D01*
X11622257Y-9569762D01*
X11641305Y-9579286D01*
X11679400Y-9579286D01*
X11698448Y-9569762D01*
X11707971Y-9560238D01*
X11717495Y-9541190D01*
X11898448Y-9455476D02*
X11803209Y-9455476D01*
X11793686Y-9550714D01*
X11803209Y-9541190D01*
X11822257Y-9531667D01*
X11869876Y-9531667D01*
X11888924Y-9541190D01*
X11898448Y-9550714D01*
X11907971Y-9569762D01*
X11907971Y-9617381D01*
X11898448Y-9636429D01*
X11888924Y-9645952D01*
X11869876Y-9655476D01*
X11822257Y-9655476D01*
X11803209Y-9645952D01*
X11793686Y-9636429D01*
X12031781Y-9455476D02*
X12050828Y-9455476D01*
X12069876Y-9465000D01*
X12079400Y-9474524D01*
X12088924Y-9493571D01*
X12098448Y-9531667D01*
X12098448Y-9579286D01*
X12088924Y-9617381D01*
X12079400Y-9636429D01*
X12069876Y-9645952D01*
X12050828Y-9655476D01*
X12031781Y-9655476D01*
X12012733Y-9645952D01*
X12003209Y-9636429D01*
X11993686Y-9617381D01*
X11984162Y-9579286D01*
X11984162Y-9531667D01*
X11993686Y-9493571D01*
X12003209Y-9474524D01*
X12012733Y-9465000D01*
X12031781Y-9455476D01*
X12184162Y-9655476D02*
X12184162Y-9522143D01*
X12184162Y-9541190D02*
X12193686Y-9531667D01*
X12212733Y-9522143D01*
X12241305Y-9522143D01*
X12260352Y-9531667D01*
X12269876Y-9550714D01*
X12269876Y-9655476D01*
X12269876Y-9550714D02*
X12279400Y-9531667D01*
X12298448Y-9522143D01*
X12327019Y-9522143D01*
X12346067Y-9531667D01*
X12355590Y-9550714D01*
X12355590Y-9655476D01*
X12450828Y-9655476D02*
X12450828Y-9522143D01*
X12450828Y-9541190D02*
X12460352Y-9531667D01*
X12479400Y-9522143D01*
X12507971Y-9522143D01*
X12527019Y-9531667D01*
X12536543Y-9550714D01*
X12536543Y-9655476D01*
X12536543Y-9550714D02*
X12546067Y-9531667D01*
X12565114Y-9522143D01*
X12593686Y-9522143D01*
X12612733Y-9531667D01*
X12622257Y-9550714D01*
X12622257Y-9655476D01*
X13012733Y-9445952D02*
X12841305Y-9703095D01*
X13269876Y-9455476D02*
X13288924Y-9455476D01*
X13307971Y-9465000D01*
X13317495Y-9474524D01*
X13327019Y-9493571D01*
X13336543Y-9531667D01*
X13336543Y-9579286D01*
X13327019Y-9617381D01*
X13317495Y-9636429D01*
X13307971Y-9645952D01*
X13288924Y-9655476D01*
X13269876Y-9655476D01*
X13250828Y-9645952D01*
X13241305Y-9636429D01*
X13231781Y-9617381D01*
X13222257Y-9579286D01*
X13222257Y-9531667D01*
X13231781Y-9493571D01*
X13241305Y-9474524D01*
X13250828Y-9465000D01*
X13269876Y-9455476D01*
X13422257Y-9636429D02*
X13431781Y-9645952D01*
X13422257Y-9655476D01*
X13412733Y-9645952D01*
X13422257Y-9636429D01*
X13422257Y-9655476D01*
X13555590Y-9455476D02*
X13574638Y-9455476D01*
X13593686Y-9465000D01*
X13603209Y-9474524D01*
X13612733Y-9493571D01*
X13622257Y-9531667D01*
X13622257Y-9579286D01*
X13612733Y-9617381D01*
X13603209Y-9636429D01*
X13593686Y-9645952D01*
X13574638Y-9655476D01*
X13555590Y-9655476D01*
X13536543Y-9645952D01*
X13527019Y-9636429D01*
X13517495Y-9617381D01*
X13507971Y-9579286D01*
X13507971Y-9531667D01*
X13517495Y-9493571D01*
X13527019Y-9474524D01*
X13536543Y-9465000D01*
X13555590Y-9455476D01*
X13688924Y-9455476D02*
X13812733Y-9455476D01*
X13746067Y-9531667D01*
X13774638Y-9531667D01*
X13793686Y-9541190D01*
X13803209Y-9550714D01*
X13812733Y-9569762D01*
X13812733Y-9617381D01*
X13803209Y-9636429D01*
X13793686Y-9645952D01*
X13774638Y-9655476D01*
X13717495Y-9655476D01*
X13698448Y-9645952D01*
X13688924Y-9636429D01*
X13879400Y-9455476D02*
X14012733Y-9455476D01*
X13927019Y-9655476D01*
X14174638Y-9522143D02*
X14174638Y-9655476D01*
X14127019Y-9445952D02*
X14079400Y-9588810D01*
X14203209Y-9588810D01*
X14269876Y-9455476D02*
X14269876Y-9493571D01*
X14346067Y-9455476D02*
X14346067Y-9493571D01*
X14641305Y-9731667D02*
X14631781Y-9722143D01*
X14612733Y-9693571D01*
X14603209Y-9674524D01*
X14593686Y-9645952D01*
X14584162Y-9598333D01*
X14584162Y-9560238D01*
X14593686Y-9512619D01*
X14603209Y-9484048D01*
X14612733Y-9465000D01*
X14631781Y-9436429D01*
X14641305Y-9426905D01*
X14727019Y-9655476D02*
X14765114Y-9655476D01*
X14784162Y-9645952D01*
X14793686Y-9636429D01*
X14812733Y-9607857D01*
X14822257Y-9569762D01*
X14822257Y-9493571D01*
X14812733Y-9474524D01*
X14803209Y-9465000D01*
X14784162Y-9455476D01*
X14746067Y-9455476D01*
X14727019Y-9465000D01*
X14717495Y-9474524D01*
X14707971Y-9493571D01*
X14707971Y-9541190D01*
X14717495Y-9560238D01*
X14727019Y-9569762D01*
X14746067Y-9579286D01*
X14784162Y-9579286D01*
X14803209Y-9569762D01*
X14812733Y-9560238D01*
X14822257Y-9541190D01*
X15060352Y-9655476D02*
X15060352Y-9455476D01*
X15146067Y-9655476D02*
X15146067Y-9550714D01*
X15136543Y-9531667D01*
X15117495Y-9522143D01*
X15088924Y-9522143D01*
X15069876Y-9531667D01*
X15060352Y-9541190D01*
X15269876Y-9655476D02*
X15250828Y-9645952D01*
X15241305Y-9636429D01*
X15231781Y-9617381D01*
X15231781Y-9560238D01*
X15241305Y-9541190D01*
X15250828Y-9531667D01*
X15269876Y-9522143D01*
X15298448Y-9522143D01*
X15317495Y-9531667D01*
X15327019Y-9541190D01*
X15336543Y-9560238D01*
X15336543Y-9617381D01*
X15327019Y-9636429D01*
X15317495Y-9645952D01*
X15298448Y-9655476D01*
X15269876Y-9655476D01*
X15450828Y-9655476D02*
X15431781Y-9645952D01*
X15422257Y-9626905D01*
X15422257Y-9455476D01*
X15603209Y-9645952D02*
X15584162Y-9655476D01*
X15546067Y-9655476D01*
X15527019Y-9645952D01*
X15517495Y-9626905D01*
X15517495Y-9550714D01*
X15527019Y-9531667D01*
X15546067Y-9522143D01*
X15584162Y-9522143D01*
X15603209Y-9531667D01*
X15612733Y-9550714D01*
X15612733Y-9569762D01*
X15517495Y-9588810D01*
X15688924Y-9645952D02*
X15707971Y-9655476D01*
X15746067Y-9655476D01*
X15765114Y-9645952D01*
X15774638Y-9626905D01*
X15774638Y-9617381D01*
X15765114Y-9598333D01*
X15746067Y-9588810D01*
X15717495Y-9588810D01*
X15698448Y-9579286D01*
X15688924Y-9560238D01*
X15688924Y-9550714D01*
X15698448Y-9531667D01*
X15717495Y-9522143D01*
X15746067Y-9522143D01*
X15765114Y-9531667D01*
X15841305Y-9731667D02*
X15850828Y-9722143D01*
X15869876Y-9693571D01*
X15879400Y-9674524D01*
X15888924Y-9645952D01*
X15898448Y-9598333D01*
X15898448Y-9560238D01*
X15888924Y-9512619D01*
X15879400Y-9484048D01*
X15869876Y-9465000D01*
X15850828Y-9436429D01*
X15841305Y-9426905D01*
D16*
X11016900Y-9881500D02*
X11069400Y-9829000D01*
X11016900Y-9776500D01*
X10964400Y-9829000D01*
X11016900Y-9881500D01*
D11*
X11431781Y-9919476D02*
X11317495Y-9919476D01*
X11374638Y-9919476D02*
X11374638Y-9719476D01*
X11355590Y-9748048D01*
X11336543Y-9767095D01*
X11317495Y-9776619D01*
X11517495Y-9900429D02*
X11527019Y-9909952D01*
X11517495Y-9919476D01*
X11507971Y-9909952D01*
X11517495Y-9900429D01*
X11517495Y-9919476D01*
X11650828Y-9719476D02*
X11669876Y-9719476D01*
X11688924Y-9729000D01*
X11698448Y-9738524D01*
X11707971Y-9757571D01*
X11717495Y-9795667D01*
X11717495Y-9843286D01*
X11707971Y-9881381D01*
X11698448Y-9900429D01*
X11688924Y-9909952D01*
X11669876Y-9919476D01*
X11650828Y-9919476D01*
X11631781Y-9909952D01*
X11622257Y-9900429D01*
X11612733Y-9881381D01*
X11603209Y-9843286D01*
X11603209Y-9795667D01*
X11612733Y-9757571D01*
X11622257Y-9738524D01*
X11631781Y-9729000D01*
X11650828Y-9719476D01*
X11898448Y-9719476D02*
X11803209Y-9719476D01*
X11793686Y-9814714D01*
X11803209Y-9805190D01*
X11822257Y-9795667D01*
X11869876Y-9795667D01*
X11888924Y-9805190D01*
X11898448Y-9814714D01*
X11907971Y-9833762D01*
X11907971Y-9881381D01*
X11898448Y-9900429D01*
X11888924Y-9909952D01*
X11869876Y-9919476D01*
X11822257Y-9919476D01*
X11803209Y-9909952D01*
X11793686Y-9900429D01*
X12031781Y-9719476D02*
X12050828Y-9719476D01*
X12069876Y-9729000D01*
X12079400Y-9738524D01*
X12088924Y-9757571D01*
X12098448Y-9795667D01*
X12098448Y-9843286D01*
X12088924Y-9881381D01*
X12079400Y-9900429D01*
X12069876Y-9909952D01*
X12050828Y-9919476D01*
X12031781Y-9919476D01*
X12012733Y-9909952D01*
X12003209Y-9900429D01*
X11993686Y-9881381D01*
X11984162Y-9843286D01*
X11984162Y-9795667D01*
X11993686Y-9757571D01*
X12003209Y-9738524D01*
X12012733Y-9729000D01*
X12031781Y-9719476D01*
X12184162Y-9919476D02*
X12184162Y-9786143D01*
X12184162Y-9805190D02*
X12193686Y-9795667D01*
X12212733Y-9786143D01*
X12241305Y-9786143D01*
X12260352Y-9795667D01*
X12269876Y-9814714D01*
X12269876Y-9919476D01*
X12269876Y-9814714D02*
X12279400Y-9795667D01*
X12298448Y-9786143D01*
X12327019Y-9786143D01*
X12346067Y-9795667D01*
X12355590Y-9814714D01*
X12355590Y-9919476D01*
X12450828Y-9919476D02*
X12450828Y-9786143D01*
X12450828Y-9805190D02*
X12460352Y-9795667D01*
X12479400Y-9786143D01*
X12507971Y-9786143D01*
X12527019Y-9795667D01*
X12536543Y-9814714D01*
X12536543Y-9919476D01*
X12536543Y-9814714D02*
X12546067Y-9795667D01*
X12565114Y-9786143D01*
X12593686Y-9786143D01*
X12612733Y-9795667D01*
X12622257Y-9814714D01*
X12622257Y-9919476D01*
X13012733Y-9709952D02*
X12841305Y-9967095D01*
X13269876Y-9719476D02*
X13288924Y-9719476D01*
X13307971Y-9729000D01*
X13317495Y-9738524D01*
X13327019Y-9757571D01*
X13336543Y-9795667D01*
X13336543Y-9843286D01*
X13327019Y-9881381D01*
X13317495Y-9900429D01*
X13307971Y-9909952D01*
X13288924Y-9919476D01*
X13269876Y-9919476D01*
X13250828Y-9909952D01*
X13241305Y-9900429D01*
X13231781Y-9881381D01*
X13222257Y-9843286D01*
X13222257Y-9795667D01*
X13231781Y-9757571D01*
X13241305Y-9738524D01*
X13250828Y-9729000D01*
X13269876Y-9719476D01*
X13422257Y-9900429D02*
X13431781Y-9909952D01*
X13422257Y-9919476D01*
X13412733Y-9909952D01*
X13422257Y-9900429D01*
X13422257Y-9919476D01*
X13555590Y-9719476D02*
X13574638Y-9719476D01*
X13593686Y-9729000D01*
X13603209Y-9738524D01*
X13612733Y-9757571D01*
X13622257Y-9795667D01*
X13622257Y-9843286D01*
X13612733Y-9881381D01*
X13603209Y-9900429D01*
X13593686Y-9909952D01*
X13574638Y-9919476D01*
X13555590Y-9919476D01*
X13536543Y-9909952D01*
X13527019Y-9900429D01*
X13517495Y-9881381D01*
X13507971Y-9843286D01*
X13507971Y-9795667D01*
X13517495Y-9757571D01*
X13527019Y-9738524D01*
X13536543Y-9729000D01*
X13555590Y-9719476D01*
X13793686Y-9786143D02*
X13793686Y-9919476D01*
X13746067Y-9709952D02*
X13698448Y-9852810D01*
X13822257Y-9852810D01*
X14003209Y-9919476D02*
X13888924Y-9919476D01*
X13946067Y-9919476D02*
X13946067Y-9719476D01*
X13927019Y-9748048D01*
X13907971Y-9767095D01*
X13888924Y-9776619D01*
X14069876Y-9719476D02*
X14193686Y-9719476D01*
X14127019Y-9795667D01*
X14155590Y-9795667D01*
X14174638Y-9805190D01*
X14184162Y-9814714D01*
X14193686Y-9833762D01*
X14193686Y-9881381D01*
X14184162Y-9900429D01*
X14174638Y-9909952D01*
X14155590Y-9919476D01*
X14098448Y-9919476D01*
X14079400Y-9909952D01*
X14069876Y-9900429D01*
X14269876Y-9719476D02*
X14269876Y-9757571D01*
X14346067Y-9719476D02*
X14346067Y-9757571D01*
X14641305Y-9995667D02*
X14631781Y-9986143D01*
X14612733Y-9957571D01*
X14603209Y-9938524D01*
X14593686Y-9909952D01*
X14584162Y-9862333D01*
X14584162Y-9824238D01*
X14593686Y-9776619D01*
X14603209Y-9748048D01*
X14612733Y-9729000D01*
X14631781Y-9700429D01*
X14641305Y-9690905D01*
X14822257Y-9919476D02*
X14707971Y-9919476D01*
X14765114Y-9919476D02*
X14765114Y-9719476D01*
X14746067Y-9748048D01*
X14727019Y-9767095D01*
X14707971Y-9776619D01*
X14946067Y-9719476D02*
X14965114Y-9719476D01*
X14984162Y-9729000D01*
X14993686Y-9738524D01*
X15003209Y-9757571D01*
X15012733Y-9795667D01*
X15012733Y-9843286D01*
X15003209Y-9881381D01*
X14993686Y-9900429D01*
X14984162Y-9909952D01*
X14965114Y-9919476D01*
X14946067Y-9919476D01*
X14927019Y-9909952D01*
X14917495Y-9900429D01*
X14907971Y-9881381D01*
X14898448Y-9843286D01*
X14898448Y-9795667D01*
X14907971Y-9757571D01*
X14917495Y-9738524D01*
X14927019Y-9729000D01*
X14946067Y-9719476D01*
X15250828Y-9919476D02*
X15250828Y-9719476D01*
X15336543Y-9919476D02*
X15336543Y-9814714D01*
X15327019Y-9795667D01*
X15307971Y-9786143D01*
X15279400Y-9786143D01*
X15260352Y-9795667D01*
X15250828Y-9805190D01*
X15460352Y-9919476D02*
X15441305Y-9909952D01*
X15431781Y-9900429D01*
X15422257Y-9881381D01*
X15422257Y-9824238D01*
X15431781Y-9805190D01*
X15441305Y-9795667D01*
X15460352Y-9786143D01*
X15488924Y-9786143D01*
X15507971Y-9795667D01*
X15517495Y-9805190D01*
X15527019Y-9824238D01*
X15527019Y-9881381D01*
X15517495Y-9900429D01*
X15507971Y-9909952D01*
X15488924Y-9919476D01*
X15460352Y-9919476D01*
X15641305Y-9919476D02*
X15622257Y-9909952D01*
X15612733Y-9890905D01*
X15612733Y-9719476D01*
X15793686Y-9909952D02*
X15774638Y-9919476D01*
X15736543Y-9919476D01*
X15717495Y-9909952D01*
X15707971Y-9890905D01*
X15707971Y-9814714D01*
X15717495Y-9795667D01*
X15736543Y-9786143D01*
X15774638Y-9786143D01*
X15793686Y-9795667D01*
X15803209Y-9814714D01*
X15803209Y-9833762D01*
X15707971Y-9852810D01*
X15879400Y-9909952D02*
X15898448Y-9919476D01*
X15936543Y-9919476D01*
X15955590Y-9909952D01*
X15965114Y-9890905D01*
X15965114Y-9881381D01*
X15955590Y-9862333D01*
X15936543Y-9852810D01*
X15907971Y-9852810D01*
X15888924Y-9843286D01*
X15879400Y-9824238D01*
X15879400Y-9814714D01*
X15888924Y-9795667D01*
X15907971Y-9786143D01*
X15936543Y-9786143D01*
X15955590Y-9795667D01*
X16031781Y-9995667D02*
X16041305Y-9986143D01*
X16060352Y-9957571D01*
X16069876Y-9938524D01*
X16079400Y-9909952D01*
X16088924Y-9862333D01*
X16088924Y-9824238D01*
X16079400Y-9776619D01*
X16069876Y-9748048D01*
X16060352Y-9729000D01*
X16041305Y-9700429D01*
X16031781Y-9690905D01*
M02*
