%TF.GenerationSoftware,KiCad,Pcbnew,6.0.11-2627ca5db0~126~ubuntu20.04.1*%
%TF.CreationDate,2023-02-14T16:49:50+01:00*%
%TF.ProjectId,pmod_sfp,706d6f64-5f73-4667-902e-6b696361645f,rev?*%
%TF.SameCoordinates,Original*%
%TF.FileFunction,Drillmap*%
%TF.FilePolarity,Positive*%
%FSLAX45Y45*%
G04 Gerber Fmt 4.5, Leading zero omitted, Abs format (unit mm)*
G04 Created by KiCad (PCBNEW 6.0.11-2627ca5db0~126~ubuntu20.04.1) date 2023-02-14 16:49:50*
%MOMM*%
%LPD*%
G01*
G04 APERTURE LIST*
%ADD10C,0.100000*%
%ADD11C,0.200000*%
%ADD12C,0.155000*%
G04 APERTURE END LIST*
D10*
X17983200Y-8128000D02*
X11074400Y-8128000D01*
X11074400Y-8128000D02*
X11074400Y-6299200D01*
X11074400Y-6299200D02*
X11074400Y-6096000D01*
X11074400Y-6096000D02*
X17983200Y-6096000D01*
X17983200Y-6096000D02*
X17983200Y-8128000D01*
D11*
D12*
X14542500Y-6554500D02*
X14697500Y-6709500D01*
X14697500Y-6554500D02*
X14542500Y-6709500D01*
X14542500Y-7514500D02*
X14697500Y-7669500D01*
X14697500Y-7514500D02*
X14542500Y-7669500D01*
D11*
X11327019Y-8443476D02*
X11327019Y-8243476D01*
X11374638Y-8243476D01*
X11403209Y-8253000D01*
X11422257Y-8272048D01*
X11431781Y-8291095D01*
X11441305Y-8329190D01*
X11441305Y-8357762D01*
X11431781Y-8395857D01*
X11422257Y-8414905D01*
X11403209Y-8433952D01*
X11374638Y-8443476D01*
X11327019Y-8443476D01*
X11527019Y-8443476D02*
X11527019Y-8310143D01*
X11527019Y-8348238D02*
X11536543Y-8329190D01*
X11546067Y-8319667D01*
X11565114Y-8310143D01*
X11584162Y-8310143D01*
X11650828Y-8443476D02*
X11650828Y-8310143D01*
X11650828Y-8243476D02*
X11641305Y-8253000D01*
X11650828Y-8262524D01*
X11660352Y-8253000D01*
X11650828Y-8243476D01*
X11650828Y-8262524D01*
X11774638Y-8443476D02*
X11755590Y-8433952D01*
X11746067Y-8414905D01*
X11746067Y-8243476D01*
X11879400Y-8443476D02*
X11860352Y-8433952D01*
X11850828Y-8414905D01*
X11850828Y-8243476D01*
X12107971Y-8443476D02*
X12107971Y-8243476D01*
X12174638Y-8386333D01*
X12241305Y-8243476D01*
X12241305Y-8443476D01*
X12422257Y-8443476D02*
X12422257Y-8338714D01*
X12412733Y-8319667D01*
X12393686Y-8310143D01*
X12355590Y-8310143D01*
X12336543Y-8319667D01*
X12422257Y-8433952D02*
X12403209Y-8443476D01*
X12355590Y-8443476D01*
X12336543Y-8433952D01*
X12327019Y-8414905D01*
X12327019Y-8395857D01*
X12336543Y-8376809D01*
X12355590Y-8367286D01*
X12403209Y-8367286D01*
X12422257Y-8357762D01*
X12517495Y-8310143D02*
X12517495Y-8510143D01*
X12517495Y-8319667D02*
X12536543Y-8310143D01*
X12574638Y-8310143D01*
X12593686Y-8319667D01*
X12603209Y-8329190D01*
X12612733Y-8348238D01*
X12612733Y-8405381D01*
X12603209Y-8424429D01*
X12593686Y-8433952D01*
X12574638Y-8443476D01*
X12536543Y-8443476D01*
X12517495Y-8433952D01*
X12698448Y-8424429D02*
X12707971Y-8433952D01*
X12698448Y-8443476D01*
X12688924Y-8433952D01*
X12698448Y-8424429D01*
X12698448Y-8443476D01*
X12698448Y-8319667D02*
X12707971Y-8329190D01*
X12698448Y-8338714D01*
X12688924Y-8329190D01*
X12698448Y-8319667D01*
X12698448Y-8338714D01*
D12*
X10914400Y-8695500D02*
X11069400Y-8850500D01*
X11069400Y-8695500D02*
X10914400Y-8850500D01*
D11*
X11431781Y-8863476D02*
X11317495Y-8863476D01*
X11374638Y-8863476D02*
X11374638Y-8663476D01*
X11355590Y-8692048D01*
X11336543Y-8711095D01*
X11317495Y-8720619D01*
X11517495Y-8844429D02*
X11527019Y-8853952D01*
X11517495Y-8863476D01*
X11507971Y-8853952D01*
X11517495Y-8844429D01*
X11517495Y-8863476D01*
X11707971Y-8663476D02*
X11612733Y-8663476D01*
X11603209Y-8758714D01*
X11612733Y-8749190D01*
X11631781Y-8739667D01*
X11679400Y-8739667D01*
X11698448Y-8749190D01*
X11707971Y-8758714D01*
X11717495Y-8777762D01*
X11717495Y-8825381D01*
X11707971Y-8844429D01*
X11698448Y-8853952D01*
X11679400Y-8863476D01*
X11631781Y-8863476D01*
X11612733Y-8853952D01*
X11603209Y-8844429D01*
X11898448Y-8663476D02*
X11803209Y-8663476D01*
X11793686Y-8758714D01*
X11803209Y-8749190D01*
X11822257Y-8739667D01*
X11869876Y-8739667D01*
X11888924Y-8749190D01*
X11898448Y-8758714D01*
X11907971Y-8777762D01*
X11907971Y-8825381D01*
X11898448Y-8844429D01*
X11888924Y-8853952D01*
X11869876Y-8863476D01*
X11822257Y-8863476D01*
X11803209Y-8853952D01*
X11793686Y-8844429D01*
X12031781Y-8663476D02*
X12050828Y-8663476D01*
X12069876Y-8673000D01*
X12079400Y-8682524D01*
X12088924Y-8701571D01*
X12098448Y-8739667D01*
X12098448Y-8787286D01*
X12088924Y-8825381D01*
X12079400Y-8844429D01*
X12069876Y-8853952D01*
X12050828Y-8863476D01*
X12031781Y-8863476D01*
X12012733Y-8853952D01*
X12003209Y-8844429D01*
X11993686Y-8825381D01*
X11984162Y-8787286D01*
X11984162Y-8739667D01*
X11993686Y-8701571D01*
X12003209Y-8682524D01*
X12012733Y-8673000D01*
X12031781Y-8663476D01*
X12184162Y-8863476D02*
X12184162Y-8730143D01*
X12184162Y-8749190D02*
X12193686Y-8739667D01*
X12212733Y-8730143D01*
X12241305Y-8730143D01*
X12260352Y-8739667D01*
X12269876Y-8758714D01*
X12269876Y-8863476D01*
X12269876Y-8758714D02*
X12279400Y-8739667D01*
X12298448Y-8730143D01*
X12327019Y-8730143D01*
X12346067Y-8739667D01*
X12355590Y-8758714D01*
X12355590Y-8863476D01*
X12450828Y-8863476D02*
X12450828Y-8730143D01*
X12450828Y-8749190D02*
X12460352Y-8739667D01*
X12479400Y-8730143D01*
X12507971Y-8730143D01*
X12527019Y-8739667D01*
X12536543Y-8758714D01*
X12536543Y-8863476D01*
X12536543Y-8758714D02*
X12546067Y-8739667D01*
X12565114Y-8730143D01*
X12593686Y-8730143D01*
X12612733Y-8739667D01*
X12622257Y-8758714D01*
X12622257Y-8863476D01*
X13012733Y-8653952D02*
X12841305Y-8911095D01*
X13269876Y-8663476D02*
X13288924Y-8663476D01*
X13307971Y-8673000D01*
X13317495Y-8682524D01*
X13327019Y-8701571D01*
X13336543Y-8739667D01*
X13336543Y-8787286D01*
X13327019Y-8825381D01*
X13317495Y-8844429D01*
X13307971Y-8853952D01*
X13288924Y-8863476D01*
X13269876Y-8863476D01*
X13250828Y-8853952D01*
X13241305Y-8844429D01*
X13231781Y-8825381D01*
X13222257Y-8787286D01*
X13222257Y-8739667D01*
X13231781Y-8701571D01*
X13241305Y-8682524D01*
X13250828Y-8673000D01*
X13269876Y-8663476D01*
X13422257Y-8844429D02*
X13431781Y-8853952D01*
X13422257Y-8863476D01*
X13412733Y-8853952D01*
X13422257Y-8844429D01*
X13422257Y-8863476D01*
X13555590Y-8663476D02*
X13574638Y-8663476D01*
X13593686Y-8673000D01*
X13603209Y-8682524D01*
X13612733Y-8701571D01*
X13622257Y-8739667D01*
X13622257Y-8787286D01*
X13612733Y-8825381D01*
X13603209Y-8844429D01*
X13593686Y-8853952D01*
X13574638Y-8863476D01*
X13555590Y-8863476D01*
X13536543Y-8853952D01*
X13527019Y-8844429D01*
X13517495Y-8825381D01*
X13507971Y-8787286D01*
X13507971Y-8739667D01*
X13517495Y-8701571D01*
X13527019Y-8682524D01*
X13536543Y-8673000D01*
X13555590Y-8663476D01*
X13793686Y-8663476D02*
X13755590Y-8663476D01*
X13736543Y-8673000D01*
X13727019Y-8682524D01*
X13707971Y-8711095D01*
X13698448Y-8749190D01*
X13698448Y-8825381D01*
X13707971Y-8844429D01*
X13717495Y-8853952D01*
X13736543Y-8863476D01*
X13774638Y-8863476D01*
X13793686Y-8853952D01*
X13803209Y-8844429D01*
X13812733Y-8825381D01*
X13812733Y-8777762D01*
X13803209Y-8758714D01*
X13793686Y-8749190D01*
X13774638Y-8739667D01*
X13736543Y-8739667D01*
X13717495Y-8749190D01*
X13707971Y-8758714D01*
X13698448Y-8777762D01*
X14003209Y-8863476D02*
X13888924Y-8863476D01*
X13946067Y-8863476D02*
X13946067Y-8663476D01*
X13927019Y-8692048D01*
X13907971Y-8711095D01*
X13888924Y-8720619D01*
X14127019Y-8663476D02*
X14146067Y-8663476D01*
X14165114Y-8673000D01*
X14174638Y-8682524D01*
X14184162Y-8701571D01*
X14193686Y-8739667D01*
X14193686Y-8787286D01*
X14184162Y-8825381D01*
X14174638Y-8844429D01*
X14165114Y-8853952D01*
X14146067Y-8863476D01*
X14127019Y-8863476D01*
X14107971Y-8853952D01*
X14098448Y-8844429D01*
X14088924Y-8825381D01*
X14079400Y-8787286D01*
X14079400Y-8739667D01*
X14088924Y-8701571D01*
X14098448Y-8682524D01*
X14107971Y-8673000D01*
X14127019Y-8663476D01*
X14269876Y-8663476D02*
X14269876Y-8701571D01*
X14346067Y-8663476D02*
X14346067Y-8701571D01*
X14641305Y-8939667D02*
X14631781Y-8930143D01*
X14612733Y-8901571D01*
X14603209Y-8882524D01*
X14593686Y-8853952D01*
X14584162Y-8806333D01*
X14584162Y-8768238D01*
X14593686Y-8720619D01*
X14603209Y-8692048D01*
X14612733Y-8673000D01*
X14631781Y-8644429D01*
X14641305Y-8634905D01*
X14707971Y-8682524D02*
X14717495Y-8673000D01*
X14736543Y-8663476D01*
X14784162Y-8663476D01*
X14803209Y-8673000D01*
X14812733Y-8682524D01*
X14822257Y-8701571D01*
X14822257Y-8720619D01*
X14812733Y-8749190D01*
X14698448Y-8863476D01*
X14822257Y-8863476D01*
X15060352Y-8863476D02*
X15060352Y-8663476D01*
X15146067Y-8863476D02*
X15146067Y-8758714D01*
X15136543Y-8739667D01*
X15117495Y-8730143D01*
X15088924Y-8730143D01*
X15069876Y-8739667D01*
X15060352Y-8749190D01*
X15269876Y-8863476D02*
X15250828Y-8853952D01*
X15241305Y-8844429D01*
X15231781Y-8825381D01*
X15231781Y-8768238D01*
X15241305Y-8749190D01*
X15250828Y-8739667D01*
X15269876Y-8730143D01*
X15298448Y-8730143D01*
X15317495Y-8739667D01*
X15327019Y-8749190D01*
X15336543Y-8768238D01*
X15336543Y-8825381D01*
X15327019Y-8844429D01*
X15317495Y-8853952D01*
X15298448Y-8863476D01*
X15269876Y-8863476D01*
X15450828Y-8863476D02*
X15431781Y-8853952D01*
X15422257Y-8834905D01*
X15422257Y-8663476D01*
X15603209Y-8853952D02*
X15584162Y-8863476D01*
X15546067Y-8863476D01*
X15527019Y-8853952D01*
X15517495Y-8834905D01*
X15517495Y-8758714D01*
X15527019Y-8739667D01*
X15546067Y-8730143D01*
X15584162Y-8730143D01*
X15603209Y-8739667D01*
X15612733Y-8758714D01*
X15612733Y-8777762D01*
X15517495Y-8796810D01*
X15688924Y-8853952D02*
X15707971Y-8863476D01*
X15746067Y-8863476D01*
X15765114Y-8853952D01*
X15774638Y-8834905D01*
X15774638Y-8825381D01*
X15765114Y-8806333D01*
X15746067Y-8796810D01*
X15717495Y-8796810D01*
X15698448Y-8787286D01*
X15688924Y-8768238D01*
X15688924Y-8758714D01*
X15698448Y-8739667D01*
X15717495Y-8730143D01*
X15746067Y-8730143D01*
X15765114Y-8739667D01*
X15841305Y-8939667D02*
X15850828Y-8930143D01*
X15869876Y-8901571D01*
X15879400Y-8882524D01*
X15888924Y-8853952D01*
X15898448Y-8806333D01*
X15898448Y-8768238D01*
X15888924Y-8720619D01*
X15879400Y-8692048D01*
X15869876Y-8673000D01*
X15850828Y-8644429D01*
X15841305Y-8634905D01*
X16203209Y-8939667D02*
X16193686Y-8930143D01*
X16174638Y-8901571D01*
X16165114Y-8882524D01*
X16155590Y-8853952D01*
X16146067Y-8806333D01*
X16146067Y-8768238D01*
X16155590Y-8720619D01*
X16165114Y-8692048D01*
X16174638Y-8673000D01*
X16193686Y-8644429D01*
X16203209Y-8634905D01*
X16279400Y-8730143D02*
X16279400Y-8863476D01*
X16279400Y-8749190D02*
X16288924Y-8739667D01*
X16307971Y-8730143D01*
X16336543Y-8730143D01*
X16355590Y-8739667D01*
X16365114Y-8758714D01*
X16365114Y-8863476D01*
X16488924Y-8863476D02*
X16469876Y-8853952D01*
X16460352Y-8844429D01*
X16450828Y-8825381D01*
X16450828Y-8768238D01*
X16460352Y-8749190D01*
X16469876Y-8739667D01*
X16488924Y-8730143D01*
X16517495Y-8730143D01*
X16536543Y-8739667D01*
X16546067Y-8749190D01*
X16555590Y-8768238D01*
X16555590Y-8825381D01*
X16546067Y-8844429D01*
X16536543Y-8853952D01*
X16517495Y-8863476D01*
X16488924Y-8863476D01*
X16612733Y-8730143D02*
X16688924Y-8730143D01*
X16641305Y-8663476D02*
X16641305Y-8834905D01*
X16650828Y-8853952D01*
X16669876Y-8863476D01*
X16688924Y-8863476D01*
X16907971Y-8730143D02*
X16907971Y-8930143D01*
X16907971Y-8739667D02*
X16927019Y-8730143D01*
X16965114Y-8730143D01*
X16984162Y-8739667D01*
X16993686Y-8749190D01*
X17003210Y-8768238D01*
X17003210Y-8825381D01*
X16993686Y-8844429D01*
X16984162Y-8853952D01*
X16965114Y-8863476D01*
X16927019Y-8863476D01*
X16907971Y-8853952D01*
X17117495Y-8863476D02*
X17098448Y-8853952D01*
X17088924Y-8834905D01*
X17088924Y-8663476D01*
X17279400Y-8863476D02*
X17279400Y-8758714D01*
X17269876Y-8739667D01*
X17250829Y-8730143D01*
X17212733Y-8730143D01*
X17193686Y-8739667D01*
X17279400Y-8853952D02*
X17260352Y-8863476D01*
X17212733Y-8863476D01*
X17193686Y-8853952D01*
X17184162Y-8834905D01*
X17184162Y-8815857D01*
X17193686Y-8796810D01*
X17212733Y-8787286D01*
X17260352Y-8787286D01*
X17279400Y-8777762D01*
X17346067Y-8730143D02*
X17422257Y-8730143D01*
X17374638Y-8663476D02*
X17374638Y-8834905D01*
X17384162Y-8853952D01*
X17403210Y-8863476D01*
X17422257Y-8863476D01*
X17565114Y-8853952D02*
X17546067Y-8863476D01*
X17507971Y-8863476D01*
X17488924Y-8853952D01*
X17479400Y-8834905D01*
X17479400Y-8758714D01*
X17488924Y-8739667D01*
X17507971Y-8730143D01*
X17546067Y-8730143D01*
X17565114Y-8739667D01*
X17574638Y-8758714D01*
X17574638Y-8777762D01*
X17479400Y-8796810D01*
X17746067Y-8863476D02*
X17746067Y-8663476D01*
X17746067Y-8853952D02*
X17727019Y-8863476D01*
X17688924Y-8863476D01*
X17669876Y-8853952D01*
X17660352Y-8844429D01*
X17650829Y-8825381D01*
X17650829Y-8768238D01*
X17660352Y-8749190D01*
X17669876Y-8739667D01*
X17688924Y-8730143D01*
X17727019Y-8730143D01*
X17746067Y-8739667D01*
X17822257Y-8939667D02*
X17831781Y-8930143D01*
X17850829Y-8901571D01*
X17860352Y-8882524D01*
X17869876Y-8853952D01*
X17879400Y-8806333D01*
X17879400Y-8768238D01*
X17869876Y-8720619D01*
X17860352Y-8692048D01*
X17850829Y-8673000D01*
X17831781Y-8644429D01*
X17822257Y-8634905D01*
M02*
