M48
; DRILL file {KiCad 6.0.11-2627ca5db0~126~ubuntu20.04.1} date mar 14 feb 2023 16:49:47
; FORMAT={-:-/ absolute / inch / decimal}
; #@! TF.CreationDate,2023-02-14T16:49:47+01:00
; #@! TF.GenerationSoftware,Kicad,Pcbnew,6.0.11-2627ca5db0~126~ubuntu20.04.1
; #@! TF.FileFunction,Plated,1,2,PTH
FMAT,2
INCH
; #@! TA.AperFunction,Plated,PTH,ViaDrill
T1C0.0157
; #@! TA.AperFunction,Plated,PTH,ComponentDrill
T2C0.0315
; #@! TA.AperFunction,Plated,PTH,ComponentDrill
T3C0.0335
; #@! TA.AperFunction,Plated,PTH,ComponentDrill
T4C0.0374
; #@! TA.AperFunction,Plated,PTH,ComponentDrill
T5C0.0413
%
G90
G05
T1
X5.67Y-2.92
X5.67Y-2.95
X5.68Y-2.67
X5.69Y-2.85
X5.7Y-2.71
X5.7Y-2.77
X5.73Y-2.68
X5.73Y-2.89
X5.7914Y-2.8186
X5.81Y-2.86
X5.84Y-2.91
X5.84Y-2.95
X6.3Y-2.7
X6.3093Y-2.7601
X6.31Y-2.64
X6.3589Y-2.57
X6.4602Y-2.7802
X6.57Y-2.62
X6.63Y-2.8375
X6.68Y-2.84
T2
X6.85Y-2.55
X6.85Y-2.65
X6.85Y-2.75
X6.85Y-2.85
X6.85Y-2.95
X6.85Y-3.05
X6.95Y-2.55
X6.95Y-2.65
X6.95Y-2.75
X6.95Y-2.85
X6.95Y-2.95
X6.95Y-3.05
T3
X5.7205Y-2.5195
T4
X5.437Y-2.5195
X5.437Y-3.0805
X5.622Y-2.5195
X5.622Y-3.0805
X5.8189Y-2.5195
X5.8189Y-3.0805
X6.0Y-2.611
X6.0Y-2.8
X6.0Y-2.989
T5
X4.5394Y-2.5195
X4.5394Y-2.8571
X4.7362Y-3.0805
X4.9331Y-2.5195
X5.1299Y-3.0805
X5.3268Y-2.5195
X5.3268Y-2.7429
X5.3268Y-2.9555
X5.5236Y-3.0805
X5.9173Y-3.0805
T0
M30
