%TF.GenerationSoftware,KiCad,Pcbnew,6.0.11-2627ca5db0~126~ubuntu20.04.1*%
%TF.CreationDate,2023-02-14T16:49:56+01:00*%
%TF.ProjectId,pmod_sfp,706d6f64-5f73-4667-902e-6b696361645f,rev?*%
%TF.SameCoordinates,Original*%
%TF.FileFunction,Copper,L2,Bot*%
%TF.FilePolarity,Positive*%
%FSLAX46Y46*%
G04 Gerber Fmt 4.6, Leading zero omitted, Abs format (unit mm)*
G04 Created by KiCad (PCBNEW 6.0.11-2627ca5db0~126~ubuntu20.04.1) date 2023-02-14 16:49:56*
%MOMM*%
%LPD*%
G01*
G04 APERTURE LIST*
%TA.AperFunction,ComponentPad*%
%ADD10R,1.500000X1.500000*%
%TD*%
%TA.AperFunction,ComponentPad*%
%ADD11C,1.500000*%
%TD*%
%TA.AperFunction,WasherPad*%
%ADD12C,2.000000*%
%TD*%
%TA.AperFunction,ComponentPad*%
%ADD13R,2.000000X2.000000*%
%TD*%
%TA.AperFunction,ViaPad*%
%ADD14C,0.800000*%
%TD*%
%TA.AperFunction,Conductor*%
%ADD15C,0.250000*%
%TD*%
%TA.AperFunction,Conductor*%
%ADD16C,0.200000*%
%TD*%
G04 APERTURE END LIST*
D10*
%TO.P,U1,1,VCC*%
%TO.N,+3V3*%
X173990000Y-64770000D03*
D11*
%TO.P,U1,2,GND*%
%TO.N,GND*%
X173990000Y-67310000D03*
%TO.P,U1,3,1*%
%TO.N,/SFP_TX_P*%
X173990000Y-69850000D03*
%TO.P,U1,4,2*%
%TO.N,/SFP_TX_N*%
X173990000Y-72390000D03*
%TO.P,U1,5,3*%
%TO.N,/SFP_TX_DIS*%
X173990000Y-74930000D03*
%TO.P,U1,6,4*%
%TO.N,unconnected-(U1-Pad6)*%
X173990000Y-77470000D03*
%TO.P,U1,7,5*%
%TO.N,unconnected-(U1-Pad7)*%
X176530000Y-77470000D03*
%TO.P,U1,8,6*%
%TO.N,/SFP_LOSS*%
X176530000Y-74930000D03*
%TO.P,U1,9,7*%
%TO.N,/SFP_RX_N*%
X176530000Y-72390000D03*
%TO.P,U1,10,8*%
%TO.N,/SFP_RX_P*%
X176530000Y-69850000D03*
%TO.P,U1,11,GND*%
%TO.N,GND*%
X176530000Y-67310000D03*
D10*
%TO.P,U1,12,VCC*%
%TO.N,+3V3*%
X176530000Y-64770000D03*
%TD*%
D12*
%TO.P,J1,*%
%TO.N,*%
X146200000Y-75920000D03*
X146200000Y-66320000D03*
D13*
%TO.P,J1,CAGE,CAGE*%
%TO.N,GND*%
X150300000Y-78245000D03*
X135300000Y-63995000D03*
X125300000Y-63995000D03*
D11*
X147800000Y-78245000D03*
D13*
X135300000Y-75070000D03*
X115300000Y-72570000D03*
D11*
X152400000Y-75920000D03*
D13*
X130300000Y-78245000D03*
D11*
X138100000Y-63995000D03*
X152400000Y-66320000D03*
X142800000Y-78245000D03*
D13*
X115300000Y-63995000D03*
D11*
X147800000Y-63995000D03*
D13*
X140300000Y-78245000D03*
X135300000Y-69670000D03*
D11*
X152400000Y-71120000D03*
X142800000Y-63995000D03*
X138100000Y-78245000D03*
D13*
X145300000Y-63995000D03*
X120300000Y-78245000D03*
%TD*%
D14*
%TO.N,GND*%
X148336000Y-73914000D03*
X144272000Y-67818000D03*
X144780000Y-68834000D03*
X144018000Y-74930000D03*
X161516000Y-65278000D03*
X145542000Y-68072000D03*
X144018000Y-74168000D03*
X148336000Y-74930000D03*
%TO.N,/SFP_TX_DIS*%
X160257369Y-70105904D03*
X147100441Y-71592853D03*
%TO.N,Net-(J1-Pad7)*%
X160274000Y-67056000D03*
X144526000Y-72390000D03*
%TO.N,/SFP_LOSS*%
X160020000Y-68580000D03*
X145542000Y-73406000D03*
%TO.N,/SFP_TX_P*%
X168402000Y-72073500D03*
%TO.N,Net-(C3-Pad1)*%
X166878000Y-66548000D03*
X144780000Y-70358000D03*
%TO.N,Net-(C5-Pad1)*%
X164088299Y-70616299D03*
X147574000Y-72644000D03*
%TO.N,/SFP_TX_N*%
X169672000Y-72136000D03*
%TD*%
D15*
%TO.N,Net-(C3-Pad1)*%
X166878000Y-66548000D02*
X166624000Y-66294000D01*
X152676280Y-67564000D02*
X147574000Y-67564000D01*
X166624000Y-66294000D02*
X153894280Y-66294000D01*
X153894280Y-66294000D02*
X153475000Y-66713280D01*
X153475000Y-66713280D02*
X153475000Y-66765280D01*
X153475000Y-66765280D02*
X152676280Y-67564000D01*
X147574000Y-67564000D02*
X144780000Y-70358000D01*
%TO.N,Net-(C5-Pad1)*%
X164088299Y-70616299D02*
X163830000Y-70358000D01*
X161030578Y-70358000D02*
X160557674Y-70830904D01*
X160557674Y-70830904D02*
X159957064Y-70830904D01*
X163830000Y-70358000D02*
X161030578Y-70358000D01*
X159957064Y-70830904D02*
X158976160Y-69850000D01*
X148175147Y-72042853D02*
X147574000Y-72644000D01*
X158976160Y-69850000D02*
X151258396Y-69850000D01*
X151258396Y-69850000D02*
X149065543Y-72042853D01*
X149065543Y-72042853D02*
X148175147Y-72042853D01*
%TO.N,/SFP_TX_DIS*%
X147100441Y-71592853D02*
X148625147Y-71592853D01*
X148625147Y-71592853D02*
X151130000Y-69088000D01*
X151130000Y-69088000D02*
X159239465Y-69088000D01*
X159239465Y-69088000D02*
X160257369Y-70105904D01*
X169427305Y-74930000D02*
X173970000Y-74930000D01*
X160257369Y-70105904D02*
X160471974Y-69891299D01*
X164388604Y-69891299D02*
X169427305Y-74930000D01*
X160471974Y-69891299D02*
X164388604Y-69891299D01*
%TO.N,Net-(J1-Pad7)*%
X144526000Y-72390000D02*
X146595000Y-70321000D01*
X146595000Y-70321000D02*
X146595000Y-69495195D01*
X146595000Y-69495195D02*
X148055195Y-68035000D01*
X148055195Y-68035000D02*
X159295000Y-68035000D01*
X159295000Y-68035000D02*
X160274000Y-67056000D01*
%TO.N,/SFP_LOSS*%
X145542000Y-72125988D02*
X145790994Y-71876994D01*
X147318148Y-70867853D02*
X147865001Y-70321000D01*
X148881000Y-70321000D02*
X150622000Y-68580000D01*
X168963195Y-73660000D02*
X175240000Y-73660000D01*
X163883195Y-68580000D02*
X168963195Y-73660000D01*
X145542000Y-73406000D02*
X145542000Y-72125988D01*
X150622000Y-68580000D02*
X160020000Y-68580000D01*
X145790994Y-71876994D02*
X146800136Y-70867853D01*
X147865001Y-70321000D02*
X148881000Y-70321000D01*
X146800136Y-70867853D02*
X147318148Y-70867853D01*
X160020000Y-68580000D02*
X163883195Y-68580000D01*
X175240000Y-73660000D02*
X176510000Y-74930000D01*
X145542000Y-72125989D02*
X145790994Y-71876994D01*
D16*
%TO.N,/SFP_TX_P*%
X168402000Y-72073500D02*
X168402000Y-71628000D01*
X172700000Y-71120000D02*
X173970000Y-69850000D01*
X168910000Y-71120000D02*
X172700000Y-71120000D01*
X168402000Y-71628000D02*
X168910000Y-71120000D01*
%TO.N,/SFP_TX_N*%
X173716000Y-72136000D02*
X173970000Y-72390000D01*
X169672000Y-72136000D02*
X173716000Y-72136000D01*
%TD*%
%TA.AperFunction,Conductor*%
%TO.N,GND*%
G36*
X179265621Y-61488502D02*
G01*
X179312114Y-61542158D01*
X179323500Y-61594500D01*
X179323500Y-80645500D01*
X179303498Y-80713621D01*
X179249842Y-80760114D01*
X179197500Y-80771500D01*
X111378500Y-80771500D01*
X111310379Y-80751498D01*
X111263886Y-80697842D01*
X111252500Y-80645500D01*
X111252500Y-72390000D01*
X143612496Y-72390000D01*
X143613186Y-72396565D01*
X143627534Y-72533074D01*
X143632458Y-72579928D01*
X143691473Y-72761556D01*
X143694776Y-72767278D01*
X143694777Y-72767279D01*
X143707423Y-72789182D01*
X143786960Y-72926944D01*
X143791378Y-72931851D01*
X143791379Y-72931852D01*
X143878600Y-73028721D01*
X143914747Y-73068866D01*
X144069248Y-73181118D01*
X144075276Y-73183802D01*
X144075278Y-73183803D01*
X144147756Y-73216072D01*
X144243712Y-73258794D01*
X144337113Y-73278647D01*
X144424056Y-73297128D01*
X144424061Y-73297128D01*
X144430513Y-73298500D01*
X144503746Y-73298500D01*
X144571867Y-73318502D01*
X144618360Y-73372158D01*
X144629056Y-73411329D01*
X144643894Y-73552500D01*
X144648458Y-73595928D01*
X144707473Y-73777556D01*
X144802960Y-73942944D01*
X144930747Y-74084866D01*
X145085248Y-74197118D01*
X145091276Y-74199802D01*
X145091278Y-74199803D01*
X145253681Y-74272109D01*
X145259712Y-74274794D01*
X145353113Y-74294647D01*
X145440056Y-74313128D01*
X145440061Y-74313128D01*
X145446513Y-74314500D01*
X145500673Y-74314500D01*
X145568794Y-74334502D01*
X145615287Y-74388158D01*
X145625391Y-74458432D01*
X145595897Y-74523012D01*
X145548891Y-74556909D01*
X145517611Y-74569865D01*
X145517607Y-74569867D01*
X145513037Y-74571760D01*
X145508817Y-74574346D01*
X145314798Y-74693241D01*
X145314792Y-74693245D01*
X145310584Y-74695824D01*
X145130031Y-74850031D01*
X144975824Y-75030584D01*
X144973245Y-75034792D01*
X144973241Y-75034798D01*
X144906387Y-75143894D01*
X144851760Y-75233037D01*
X144849867Y-75237607D01*
X144849865Y-75237611D01*
X144788230Y-75386413D01*
X144760895Y-75452406D01*
X144750149Y-75497168D01*
X144721325Y-75617229D01*
X144705465Y-75683289D01*
X144686835Y-75920000D01*
X144705465Y-76156711D01*
X144706619Y-76161518D01*
X144706620Y-76161524D01*
X144722072Y-76225885D01*
X144760895Y-76387594D01*
X144762788Y-76392165D01*
X144762789Y-76392167D01*
X144807079Y-76499092D01*
X144851760Y-76606963D01*
X144854346Y-76611183D01*
X144973241Y-76805202D01*
X144973245Y-76805208D01*
X144975824Y-76809416D01*
X145130031Y-76989969D01*
X145310584Y-77144176D01*
X145314792Y-77146755D01*
X145314798Y-77146759D01*
X145493236Y-77256106D01*
X145513037Y-77268240D01*
X145517607Y-77270133D01*
X145517611Y-77270135D01*
X145727833Y-77357211D01*
X145732406Y-77359105D01*
X145812609Y-77378360D01*
X145958476Y-77413380D01*
X145958482Y-77413381D01*
X145963289Y-77414535D01*
X146200000Y-77433165D01*
X146436711Y-77414535D01*
X146441518Y-77413381D01*
X146441524Y-77413380D01*
X146587391Y-77378360D01*
X146667594Y-77359105D01*
X146672167Y-77357211D01*
X146882389Y-77270135D01*
X146882393Y-77270133D01*
X146886963Y-77268240D01*
X146906764Y-77256106D01*
X147085202Y-77146759D01*
X147085208Y-77146755D01*
X147089416Y-77144176D01*
X147269969Y-76989969D01*
X147424176Y-76809416D01*
X147426755Y-76805208D01*
X147426759Y-76805202D01*
X147545654Y-76611183D01*
X147548240Y-76606963D01*
X147592922Y-76499092D01*
X147637211Y-76392167D01*
X147637212Y-76392165D01*
X147639105Y-76387594D01*
X147677928Y-76225885D01*
X147693380Y-76161524D01*
X147693381Y-76161518D01*
X147694535Y-76156711D01*
X147713165Y-75920000D01*
X147694535Y-75683289D01*
X147678676Y-75617229D01*
X147649851Y-75497168D01*
X147639105Y-75452406D01*
X147611770Y-75386413D01*
X147550135Y-75237611D01*
X147550133Y-75237607D01*
X147548240Y-75233037D01*
X147493613Y-75143894D01*
X147426759Y-75034798D01*
X147426755Y-75034792D01*
X147424176Y-75030584D01*
X147269969Y-74850031D01*
X147089416Y-74695824D01*
X147085208Y-74693245D01*
X147085202Y-74693241D01*
X146891183Y-74574346D01*
X146886963Y-74571760D01*
X146882393Y-74569867D01*
X146882389Y-74569865D01*
X146672167Y-74482789D01*
X146672165Y-74482788D01*
X146667594Y-74480895D01*
X146574029Y-74458432D01*
X146441524Y-74426620D01*
X146441518Y-74426619D01*
X146436711Y-74425465D01*
X146200000Y-74406835D01*
X146195070Y-74407223D01*
X146095972Y-74415022D01*
X146026492Y-74400426D01*
X145975932Y-74350583D01*
X145960346Y-74281319D01*
X145984681Y-74214623D01*
X146012023Y-74187476D01*
X146101492Y-74122473D01*
X146147909Y-74088749D01*
X146147911Y-74088747D01*
X146153253Y-74084866D01*
X146281040Y-73942944D01*
X146376527Y-73777556D01*
X146435542Y-73595928D01*
X146440107Y-73552500D01*
X146454814Y-73412565D01*
X146455504Y-73406000D01*
X146450023Y-73353852D01*
X146436232Y-73222635D01*
X146436232Y-73222633D01*
X146435542Y-73216072D01*
X146376527Y-73034444D01*
X146371746Y-73026162D01*
X146284341Y-72874774D01*
X146281040Y-72869056D01*
X146207863Y-72787785D01*
X146177147Y-72723779D01*
X146175500Y-72703476D01*
X146175500Y-72440582D01*
X146195502Y-72372461D01*
X146212405Y-72351487D01*
X146301956Y-72261936D01*
X146364268Y-72227910D01*
X146435083Y-72232975D01*
X146479277Y-72263041D01*
X146479861Y-72262393D01*
X146484610Y-72266669D01*
X146484688Y-72266722D01*
X146484770Y-72266813D01*
X146484773Y-72266816D01*
X146489188Y-72271719D01*
X146494527Y-72275598D01*
X146625842Y-72371004D01*
X146669196Y-72427226D01*
X146677091Y-72486109D01*
X146660496Y-72644000D01*
X146661186Y-72650565D01*
X146678801Y-72818158D01*
X146680458Y-72833928D01*
X146739473Y-73015556D01*
X146742776Y-73021278D01*
X146742777Y-73021279D01*
X146767354Y-73063848D01*
X146834960Y-73180944D01*
X146839378Y-73185851D01*
X146839379Y-73185852D01*
X146866589Y-73216072D01*
X146962747Y-73322866D01*
X147061843Y-73394864D01*
X147086207Y-73412565D01*
X147117248Y-73435118D01*
X147123276Y-73437802D01*
X147123278Y-73437803D01*
X147220074Y-73480899D01*
X147291712Y-73512794D01*
X147385112Y-73532647D01*
X147472056Y-73551128D01*
X147472061Y-73551128D01*
X147478513Y-73552500D01*
X147669487Y-73552500D01*
X147675939Y-73551128D01*
X147675944Y-73551128D01*
X147762888Y-73532647D01*
X147856288Y-73512794D01*
X147927926Y-73480899D01*
X148024722Y-73437803D01*
X148024724Y-73437802D01*
X148030752Y-73435118D01*
X148061794Y-73412565D01*
X148086157Y-73394864D01*
X148185253Y-73322866D01*
X148281411Y-73216072D01*
X148308621Y-73185852D01*
X148308622Y-73185851D01*
X148313040Y-73180944D01*
X148380646Y-73063848D01*
X148405223Y-73021279D01*
X148405224Y-73021278D01*
X148408527Y-73015556D01*
X148435724Y-72931852D01*
X148465502Y-72840207D01*
X148465502Y-72840205D01*
X148467542Y-72833928D01*
X148472245Y-72789182D01*
X148499258Y-72723526D01*
X148557480Y-72682896D01*
X148597555Y-72676353D01*
X148986776Y-72676353D01*
X148997959Y-72676880D01*
X149005452Y-72678555D01*
X149013378Y-72678306D01*
X149013379Y-72678306D01*
X149073529Y-72676415D01*
X149077488Y-72676353D01*
X149105399Y-72676353D01*
X149109334Y-72675856D01*
X149109399Y-72675848D01*
X149121236Y-72674915D01*
X149153494Y-72673901D01*
X149157513Y-72673775D01*
X149165432Y-72673526D01*
X149184886Y-72667874D01*
X149204243Y-72663866D01*
X149216473Y-72662321D01*
X149216474Y-72662321D01*
X149224340Y-72661327D01*
X149231711Y-72658408D01*
X149231713Y-72658408D01*
X149265455Y-72645049D01*
X149276685Y-72641204D01*
X149311526Y-72631082D01*
X149311527Y-72631082D01*
X149319136Y-72628871D01*
X149325955Y-72624838D01*
X149325960Y-72624836D01*
X149336571Y-72618560D01*
X149354319Y-72609865D01*
X149373160Y-72602405D01*
X149408930Y-72576417D01*
X149418850Y-72569901D01*
X149450078Y-72551433D01*
X149450081Y-72551431D01*
X149456905Y-72547395D01*
X149471226Y-72533074D01*
X149486260Y-72520233D01*
X149496237Y-72512984D01*
X149502650Y-72508325D01*
X149530841Y-72474248D01*
X149538831Y-72465469D01*
X151483895Y-70520405D01*
X151546207Y-70486379D01*
X151572990Y-70483500D01*
X158661565Y-70483500D01*
X158729686Y-70503502D01*
X158750661Y-70520405D01*
X159453417Y-71223162D01*
X159460951Y-71231441D01*
X159465064Y-71237922D01*
X159495497Y-71266500D01*
X159514715Y-71284547D01*
X159517557Y-71287302D01*
X159537294Y-71307039D01*
X159540491Y-71309519D01*
X159549511Y-71317222D01*
X159581743Y-71347490D01*
X159588689Y-71351309D01*
X159588692Y-71351311D01*
X159599498Y-71357252D01*
X159616017Y-71368103D01*
X159632023Y-71380518D01*
X159639292Y-71383663D01*
X159639296Y-71383666D01*
X159672601Y-71398078D01*
X159683251Y-71403295D01*
X159722004Y-71424599D01*
X159729679Y-71426570D01*
X159729680Y-71426570D01*
X159741626Y-71429637D01*
X159760331Y-71436041D01*
X159778919Y-71444085D01*
X159786742Y-71445324D01*
X159786752Y-71445327D01*
X159822588Y-71451003D01*
X159834208Y-71453409D01*
X159866023Y-71461577D01*
X159877034Y-71464404D01*
X159897288Y-71464404D01*
X159916998Y-71465955D01*
X159937007Y-71469124D01*
X159944899Y-71468378D01*
X159963644Y-71466606D01*
X159981026Y-71464963D01*
X159992883Y-71464404D01*
X160478907Y-71464404D01*
X160490090Y-71464931D01*
X160497583Y-71466606D01*
X160505509Y-71466357D01*
X160505510Y-71466357D01*
X160565660Y-71464466D01*
X160569619Y-71464404D01*
X160597530Y-71464404D01*
X160601465Y-71463907D01*
X160601530Y-71463899D01*
X160613367Y-71462966D01*
X160645625Y-71461952D01*
X160649644Y-71461826D01*
X160657563Y-71461577D01*
X160677017Y-71455925D01*
X160696374Y-71451917D01*
X160708604Y-71450372D01*
X160708605Y-71450372D01*
X160716471Y-71449378D01*
X160723842Y-71446459D01*
X160723844Y-71446459D01*
X160757586Y-71433100D01*
X160768816Y-71429255D01*
X160803657Y-71419133D01*
X160803658Y-71419133D01*
X160811267Y-71416922D01*
X160818086Y-71412889D01*
X160818091Y-71412887D01*
X160828702Y-71406611D01*
X160846450Y-71397916D01*
X160865291Y-71390456D01*
X160901061Y-71364468D01*
X160910981Y-71357952D01*
X160942209Y-71339484D01*
X160942212Y-71339482D01*
X160949036Y-71335446D01*
X160963358Y-71321124D01*
X160978391Y-71308284D01*
X160988368Y-71301035D01*
X160994781Y-71296376D01*
X161022972Y-71262299D01*
X161030962Y-71253520D01*
X161256077Y-71028405D01*
X161318389Y-70994379D01*
X161345172Y-70991500D01*
X163183130Y-70991500D01*
X163251251Y-71011502D01*
X163292248Y-71054498D01*
X163349259Y-71153243D01*
X163353677Y-71158150D01*
X163353678Y-71158151D01*
X163468238Y-71285383D01*
X163477046Y-71295165D01*
X163512777Y-71321125D01*
X163623490Y-71401563D01*
X163631547Y-71407417D01*
X163637575Y-71410101D01*
X163637577Y-71410102D01*
X163797941Y-71481500D01*
X163806011Y-71485093D01*
X163899412Y-71504946D01*
X163986355Y-71523427D01*
X163986360Y-71523427D01*
X163992812Y-71524799D01*
X164183786Y-71524799D01*
X164190238Y-71523427D01*
X164190243Y-71523427D01*
X164277186Y-71504946D01*
X164370587Y-71485093D01*
X164378657Y-71481500D01*
X164539021Y-71410102D01*
X164539023Y-71410101D01*
X164545051Y-71407417D01*
X164551008Y-71403089D01*
X164694208Y-71299048D01*
X164694210Y-71299046D01*
X164699552Y-71295165D01*
X164703974Y-71290254D01*
X164704059Y-71290160D01*
X164704122Y-71290121D01*
X164708879Y-71285838D01*
X164709663Y-71286708D01*
X164764508Y-71252925D01*
X164835492Y-71254282D01*
X164886784Y-71285383D01*
X168923648Y-75322247D01*
X168931192Y-75330537D01*
X168935305Y-75337018D01*
X168941082Y-75342443D01*
X168984972Y-75383658D01*
X168987814Y-75386413D01*
X169007535Y-75406134D01*
X169010730Y-75408612D01*
X169019752Y-75416318D01*
X169051984Y-75446586D01*
X169058933Y-75450406D01*
X169069737Y-75456346D01*
X169086261Y-75467199D01*
X169102264Y-75479613D01*
X169142848Y-75497176D01*
X169153478Y-75502383D01*
X169192245Y-75523695D01*
X169199922Y-75525666D01*
X169199927Y-75525668D01*
X169211863Y-75528732D01*
X169230571Y-75535137D01*
X169249160Y-75543181D01*
X169256988Y-75544421D01*
X169256995Y-75544423D01*
X169292829Y-75550099D01*
X169304449Y-75552505D01*
X169339594Y-75561528D01*
X169347275Y-75563500D01*
X169367529Y-75563500D01*
X169387239Y-75565051D01*
X169407248Y-75568220D01*
X169415140Y-75567474D01*
X169451266Y-75564059D01*
X169463124Y-75563500D01*
X172831646Y-75563500D01*
X172899767Y-75583502D01*
X172934858Y-75617228D01*
X173022251Y-75742038D01*
X173177962Y-75897749D01*
X173182471Y-75900906D01*
X173182473Y-75900908D01*
X173216780Y-75924930D01*
X173358346Y-76024056D01*
X173363328Y-76026379D01*
X173363333Y-76026382D01*
X173490768Y-76085805D01*
X173544053Y-76132722D01*
X173563514Y-76200999D01*
X173542972Y-76268959D01*
X173490768Y-76314195D01*
X173363334Y-76373618D01*
X173363329Y-76373621D01*
X173358347Y-76375944D01*
X173353840Y-76379100D01*
X173353838Y-76379101D01*
X173182473Y-76499092D01*
X173182470Y-76499094D01*
X173177962Y-76502251D01*
X173022251Y-76657962D01*
X173019094Y-76662470D01*
X173019092Y-76662473D01*
X172899101Y-76833838D01*
X172895944Y-76838347D01*
X172893621Y-76843329D01*
X172893618Y-76843334D01*
X172846415Y-76944562D01*
X172802880Y-77037924D01*
X172745885Y-77250629D01*
X172726693Y-77470000D01*
X172745885Y-77689371D01*
X172802880Y-77902076D01*
X172805205Y-77907061D01*
X172893618Y-78096666D01*
X172893621Y-78096671D01*
X172895944Y-78101653D01*
X173022251Y-78282038D01*
X173177962Y-78437749D01*
X173358346Y-78564056D01*
X173557924Y-78657120D01*
X173770629Y-78714115D01*
X173990000Y-78733307D01*
X174209371Y-78714115D01*
X174422076Y-78657120D01*
X174621654Y-78564056D01*
X174802038Y-78437749D01*
X174957749Y-78282038D01*
X175084056Y-78101653D01*
X175086379Y-78096671D01*
X175086382Y-78096666D01*
X175145805Y-77969231D01*
X175192722Y-77915946D01*
X175260999Y-77896485D01*
X175328959Y-77917027D01*
X175374195Y-77969231D01*
X175433618Y-78096666D01*
X175433621Y-78096671D01*
X175435944Y-78101653D01*
X175562251Y-78282038D01*
X175717962Y-78437749D01*
X175898346Y-78564056D01*
X176097924Y-78657120D01*
X176310629Y-78714115D01*
X176530000Y-78733307D01*
X176749371Y-78714115D01*
X176962076Y-78657120D01*
X177161654Y-78564056D01*
X177342038Y-78437749D01*
X177497749Y-78282038D01*
X177624056Y-78101653D01*
X177626379Y-78096671D01*
X177626382Y-78096666D01*
X177714795Y-77907061D01*
X177717120Y-77902076D01*
X177774115Y-77689371D01*
X177793307Y-77470000D01*
X177774115Y-77250629D01*
X177717120Y-77037924D01*
X177673585Y-76944562D01*
X177626382Y-76843334D01*
X177626379Y-76843329D01*
X177624056Y-76838347D01*
X177620899Y-76833838D01*
X177500908Y-76662473D01*
X177500906Y-76662470D01*
X177497749Y-76657962D01*
X177342038Y-76502251D01*
X177161654Y-76375944D01*
X177156672Y-76373621D01*
X177156667Y-76373618D01*
X177029232Y-76314195D01*
X176975947Y-76267278D01*
X176956486Y-76199001D01*
X176977028Y-76131041D01*
X177029232Y-76085805D01*
X177156667Y-76026382D01*
X177156672Y-76026379D01*
X177161654Y-76024056D01*
X177303220Y-75924930D01*
X177337527Y-75900908D01*
X177337529Y-75900906D01*
X177342038Y-75897749D01*
X177497749Y-75742038D01*
X177585142Y-75617229D01*
X177620899Y-75566162D01*
X177620900Y-75566160D01*
X177624056Y-75561653D01*
X177626379Y-75556671D01*
X177626382Y-75556666D01*
X177677712Y-75446586D01*
X177717120Y-75362076D01*
X177774115Y-75149371D01*
X177793307Y-74930000D01*
X177774115Y-74710629D01*
X177717120Y-74497924D01*
X177671656Y-74400426D01*
X177626382Y-74303334D01*
X177626379Y-74303329D01*
X177624056Y-74298347D01*
X177497749Y-74117962D01*
X177342038Y-73962251D01*
X177321475Y-73947852D01*
X177262759Y-73906739D01*
X177161654Y-73835944D01*
X177156672Y-73833621D01*
X177156667Y-73833618D01*
X177029232Y-73774195D01*
X176975947Y-73727278D01*
X176956486Y-73659001D01*
X176977028Y-73591041D01*
X177029232Y-73545805D01*
X177156667Y-73486382D01*
X177156672Y-73486379D01*
X177161654Y-73484056D01*
X177342038Y-73357749D01*
X177497749Y-73202038D01*
X177510518Y-73183803D01*
X177620899Y-73026162D01*
X177620900Y-73026160D01*
X177624056Y-73021653D01*
X177626379Y-73016671D01*
X177626382Y-73016666D01*
X177688912Y-72882568D01*
X177717120Y-72822076D01*
X177774115Y-72609371D01*
X177793307Y-72390000D01*
X177774115Y-72170629D01*
X177717120Y-71957924D01*
X177665931Y-71848148D01*
X177626382Y-71763334D01*
X177626379Y-71763329D01*
X177624056Y-71758347D01*
X177515115Y-71602763D01*
X177500908Y-71582473D01*
X177500906Y-71582470D01*
X177497749Y-71577962D01*
X177342038Y-71422251D01*
X177334428Y-71416922D01*
X177235269Y-71347490D01*
X177161654Y-71295944D01*
X177156672Y-71293621D01*
X177156667Y-71293618D01*
X177029232Y-71234195D01*
X176975947Y-71187278D01*
X176956486Y-71119001D01*
X176977028Y-71051041D01*
X177029232Y-71005805D01*
X177156667Y-70946382D01*
X177156672Y-70946379D01*
X177161654Y-70944056D01*
X177342038Y-70817749D01*
X177497749Y-70662038D01*
X177545737Y-70593505D01*
X177620899Y-70486162D01*
X177620900Y-70486160D01*
X177624056Y-70481653D01*
X177626379Y-70476671D01*
X177626382Y-70476666D01*
X177714795Y-70287061D01*
X177717120Y-70282076D01*
X177774115Y-70069371D01*
X177793307Y-69850000D01*
X177774115Y-69630629D01*
X177717120Y-69417924D01*
X177642453Y-69257799D01*
X177626382Y-69223334D01*
X177626379Y-69223329D01*
X177624056Y-69218347D01*
X177497749Y-69037962D01*
X177342038Y-68882251D01*
X177161654Y-68755944D01*
X176962076Y-68662880D01*
X176749371Y-68605885D01*
X176530000Y-68586693D01*
X176310629Y-68605885D01*
X176097924Y-68662880D01*
X176006729Y-68705405D01*
X175903334Y-68753618D01*
X175903329Y-68753621D01*
X175898347Y-68755944D01*
X175893840Y-68759100D01*
X175893838Y-68759101D01*
X175722473Y-68879092D01*
X175722470Y-68879094D01*
X175717962Y-68882251D01*
X175562251Y-69037962D01*
X175435944Y-69218347D01*
X175433621Y-69223329D01*
X175433618Y-69223334D01*
X175374195Y-69350769D01*
X175327278Y-69404054D01*
X175259001Y-69423515D01*
X175191041Y-69402973D01*
X175145805Y-69350769D01*
X175086382Y-69223334D01*
X175086379Y-69223329D01*
X175084056Y-69218347D01*
X174957749Y-69037962D01*
X174802038Y-68882251D01*
X174621654Y-68755944D01*
X174422076Y-68662880D01*
X174209371Y-68605885D01*
X173990000Y-68586693D01*
X173770629Y-68605885D01*
X173557924Y-68662880D01*
X173466729Y-68705405D01*
X173363334Y-68753618D01*
X173363329Y-68753621D01*
X173358347Y-68755944D01*
X173353840Y-68759100D01*
X173353838Y-68759101D01*
X173182473Y-68879092D01*
X173182470Y-68879094D01*
X173177962Y-68882251D01*
X173022251Y-69037962D01*
X172895944Y-69218347D01*
X172893621Y-69223329D01*
X172893618Y-69223334D01*
X172877547Y-69257799D01*
X172802880Y-69417924D01*
X172745885Y-69630629D01*
X172726693Y-69850000D01*
X172745885Y-70069371D01*
X172747308Y-70074681D01*
X172747309Y-70074688D01*
X172757529Y-70112829D01*
X172755839Y-70183805D01*
X172724917Y-70234534D01*
X172484856Y-70474595D01*
X172422544Y-70508621D01*
X172395761Y-70511500D01*
X168958136Y-70511500D01*
X168941690Y-70510422D01*
X168918188Y-70507328D01*
X168910000Y-70506250D01*
X168901812Y-70507328D01*
X168870129Y-70511499D01*
X168870120Y-70511500D01*
X168870115Y-70511500D01*
X168751150Y-70527162D01*
X168603125Y-70588476D01*
X168597392Y-70592875D01*
X168507928Y-70661523D01*
X168507925Y-70661526D01*
X168476013Y-70686013D01*
X168470983Y-70692568D01*
X168456548Y-70711379D01*
X168445681Y-70723770D01*
X168005766Y-71163685D01*
X167993375Y-71174552D01*
X167968013Y-71194013D01*
X167943526Y-71225925D01*
X167943523Y-71225928D01*
X167934320Y-71237922D01*
X167876588Y-71313159D01*
X167870476Y-71321124D01*
X167868839Y-71325076D01*
X167835456Y-71362150D01*
X167805843Y-71383666D01*
X167790747Y-71394634D01*
X167786240Y-71399640D01*
X167786177Y-71399679D01*
X167781423Y-71403959D01*
X167780640Y-71403089D01*
X167725792Y-71436874D01*
X167654808Y-71435517D01*
X167603516Y-71404416D01*
X164386847Y-68187747D01*
X164379307Y-68179461D01*
X164375195Y-68172982D01*
X164325543Y-68126356D01*
X164322702Y-68123602D01*
X164302965Y-68103865D01*
X164299768Y-68101385D01*
X164290746Y-68093680D01*
X164264295Y-68068841D01*
X164258516Y-68063414D01*
X164251570Y-68059595D01*
X164251567Y-68059593D01*
X164240761Y-68053652D01*
X164224242Y-68042801D01*
X164222785Y-68041671D01*
X164208236Y-68030386D01*
X164200967Y-68027241D01*
X164200963Y-68027238D01*
X164167658Y-68012826D01*
X164157008Y-68007609D01*
X164118255Y-67986305D01*
X164098632Y-67981267D01*
X164079929Y-67974863D01*
X164068615Y-67969967D01*
X164068614Y-67969967D01*
X164061340Y-67966819D01*
X164053517Y-67965580D01*
X164053507Y-67965577D01*
X164017671Y-67959901D01*
X164006051Y-67957495D01*
X163970906Y-67948472D01*
X163970905Y-67948472D01*
X163963225Y-67946500D01*
X163942971Y-67946500D01*
X163923260Y-67944949D01*
X163911081Y-67943020D01*
X163903252Y-67941780D01*
X163895360Y-67942526D01*
X163859234Y-67945941D01*
X163847376Y-67946500D01*
X160977419Y-67946500D01*
X160909298Y-67926498D01*
X160862805Y-67872842D01*
X160852701Y-67802568D01*
X160882195Y-67737988D01*
X160885255Y-67734868D01*
X160885253Y-67734866D01*
X161008621Y-67597852D01*
X161008622Y-67597851D01*
X161013040Y-67592944D01*
X161108527Y-67427556D01*
X161167542Y-67245928D01*
X161169138Y-67230749D01*
X161186814Y-67062565D01*
X161187504Y-67056000D01*
X161187129Y-67052429D01*
X161206816Y-66985379D01*
X161260472Y-66938886D01*
X161312814Y-66927500D01*
X165975313Y-66927500D01*
X166043434Y-66947502D01*
X166084431Y-66990498D01*
X166138960Y-67084944D01*
X166143378Y-67089851D01*
X166143379Y-67089852D01*
X166262325Y-67221955D01*
X166266747Y-67226866D01*
X166421248Y-67339118D01*
X166427276Y-67341802D01*
X166427278Y-67341803D01*
X166561361Y-67401500D01*
X166595712Y-67416794D01*
X166689112Y-67436647D01*
X166776056Y-67455128D01*
X166776061Y-67455128D01*
X166782513Y-67456500D01*
X166973487Y-67456500D01*
X166979939Y-67455128D01*
X166979944Y-67455128D01*
X167066888Y-67436647D01*
X167160288Y-67416794D01*
X167194639Y-67401500D01*
X167328722Y-67341803D01*
X167328724Y-67341802D01*
X167334752Y-67339118D01*
X167489253Y-67226866D01*
X167493675Y-67221955D01*
X167612621Y-67089852D01*
X167612622Y-67089851D01*
X167617040Y-67084944D01*
X167701367Y-66938886D01*
X167709223Y-66925279D01*
X167709224Y-66925278D01*
X167712527Y-66919556D01*
X167771542Y-66737928D01*
X167791504Y-66548000D01*
X167774055Y-66381979D01*
X167772232Y-66364635D01*
X167772232Y-66364633D01*
X167771542Y-66358072D01*
X167712527Y-66176444D01*
X167617040Y-66011056D01*
X167489253Y-65869134D01*
X167347497Y-65766142D01*
X167340094Y-65760763D01*
X167340093Y-65760762D01*
X167334752Y-65756882D01*
X167328724Y-65754198D01*
X167328722Y-65754197D01*
X167166319Y-65681891D01*
X167166318Y-65681891D01*
X167160288Y-65679206D01*
X167050078Y-65655780D01*
X166979944Y-65640872D01*
X166979939Y-65640872D01*
X166973487Y-65639500D01*
X166782513Y-65639500D01*
X166776053Y-65640873D01*
X166776054Y-65640873D01*
X166702348Y-65656539D01*
X166656446Y-65657741D01*
X166651894Y-65657020D01*
X166651884Y-65657020D01*
X166644057Y-65655780D01*
X166636165Y-65656526D01*
X166600039Y-65659941D01*
X166588181Y-65660500D01*
X153973043Y-65660500D01*
X153961859Y-65659973D01*
X153954371Y-65658299D01*
X153946448Y-65658548D01*
X153886313Y-65660438D01*
X153882355Y-65660500D01*
X153854424Y-65660500D01*
X153850509Y-65660995D01*
X153850505Y-65660995D01*
X153850447Y-65661003D01*
X153850418Y-65661006D01*
X153838576Y-65661939D01*
X153794390Y-65663327D01*
X153777024Y-65668372D01*
X153774938Y-65668978D01*
X153755586Y-65672986D01*
X153743348Y-65674532D01*
X153743346Y-65674533D01*
X153735483Y-65675526D01*
X153694366Y-65691806D01*
X153683165Y-65695641D01*
X153640686Y-65707982D01*
X153633867Y-65712015D01*
X153633862Y-65712017D01*
X153623251Y-65718293D01*
X153605501Y-65726990D01*
X153586663Y-65734448D01*
X153555786Y-65756882D01*
X153550905Y-65760428D01*
X153540981Y-65766947D01*
X153509740Y-65785422D01*
X153509735Y-65785426D01*
X153502917Y-65789458D01*
X153488593Y-65803782D01*
X153473561Y-65816621D01*
X153457173Y-65828528D01*
X153433439Y-65857218D01*
X153428992Y-65862593D01*
X153421002Y-65871373D01*
X153082747Y-66209628D01*
X153074461Y-66217168D01*
X153067982Y-66221280D01*
X153062557Y-66227057D01*
X153021357Y-66270931D01*
X153018602Y-66273773D01*
X152998865Y-66293510D01*
X152996385Y-66296707D01*
X152988682Y-66305727D01*
X152958414Y-66337959D01*
X152954595Y-66344905D01*
X152954593Y-66344908D01*
X152948652Y-66355714D01*
X152937801Y-66372233D01*
X152925386Y-66388239D01*
X152922240Y-66395510D01*
X152911473Y-66420390D01*
X152884931Y-66459445D01*
X152450779Y-66893596D01*
X152388467Y-66927621D01*
X152361684Y-66930500D01*
X147764627Y-66930500D01*
X147696506Y-66910498D01*
X147650013Y-66856842D01*
X147639909Y-66786568D01*
X147642108Y-66775086D01*
X147693380Y-66561524D01*
X147693381Y-66561518D01*
X147694535Y-66556711D01*
X147713165Y-66320000D01*
X147694535Y-66083289D01*
X147681382Y-66028500D01*
X147647804Y-65888642D01*
X147639105Y-65852406D01*
X147631745Y-65834637D01*
X147550135Y-65637611D01*
X147550133Y-65637607D01*
X147548240Y-65633037D01*
X147508467Y-65568134D01*
X172731500Y-65568134D01*
X172738255Y-65630316D01*
X172789385Y-65766705D01*
X172876739Y-65883261D01*
X172993295Y-65970615D01*
X173129684Y-66021745D01*
X173191866Y-66028500D01*
X174788134Y-66028500D01*
X174850316Y-66021745D01*
X174986705Y-65970615D01*
X175103261Y-65883261D01*
X175159174Y-65808657D01*
X175216034Y-65766142D01*
X175286852Y-65761116D01*
X175349145Y-65795176D01*
X175360826Y-65808657D01*
X175416739Y-65883261D01*
X175533295Y-65970615D01*
X175669684Y-66021745D01*
X175731866Y-66028500D01*
X177328134Y-66028500D01*
X177390316Y-66021745D01*
X177526705Y-65970615D01*
X177643261Y-65883261D01*
X177730615Y-65766705D01*
X177781745Y-65630316D01*
X177788500Y-65568134D01*
X177788500Y-63971866D01*
X177781745Y-63909684D01*
X177730615Y-63773295D01*
X177643261Y-63656739D01*
X177526705Y-63569385D01*
X177390316Y-63518255D01*
X177328134Y-63511500D01*
X175731866Y-63511500D01*
X175669684Y-63518255D01*
X175533295Y-63569385D01*
X175416739Y-63656739D01*
X175411358Y-63663919D01*
X175411357Y-63663920D01*
X175360826Y-63731343D01*
X175303966Y-63773858D01*
X175233148Y-63778884D01*
X175170855Y-63744824D01*
X175159174Y-63731343D01*
X175108643Y-63663920D01*
X175108642Y-63663919D01*
X175103261Y-63656739D01*
X174986705Y-63569385D01*
X174850316Y-63518255D01*
X174788134Y-63511500D01*
X173191866Y-63511500D01*
X173129684Y-63518255D01*
X172993295Y-63569385D01*
X172876739Y-63656739D01*
X172789385Y-63773295D01*
X172738255Y-63909684D01*
X172731500Y-63971866D01*
X172731500Y-65568134D01*
X147508467Y-65568134D01*
X147506373Y-65564717D01*
X147426759Y-65434798D01*
X147426755Y-65434792D01*
X147424176Y-65430584D01*
X147269969Y-65250031D01*
X147089416Y-65095824D01*
X147085208Y-65093245D01*
X147085202Y-65093241D01*
X146891183Y-64974346D01*
X146886963Y-64971760D01*
X146882393Y-64969867D01*
X146882389Y-64969865D01*
X146672167Y-64882789D01*
X146672165Y-64882788D01*
X146667594Y-64880895D01*
X146587391Y-64861640D01*
X146441524Y-64826620D01*
X146441518Y-64826619D01*
X146436711Y-64825465D01*
X146200000Y-64806835D01*
X145963289Y-64825465D01*
X145958482Y-64826619D01*
X145958476Y-64826620D01*
X145812609Y-64861640D01*
X145732406Y-64880895D01*
X145727835Y-64882788D01*
X145727833Y-64882789D01*
X145517611Y-64969865D01*
X145517607Y-64969867D01*
X145513037Y-64971760D01*
X145508817Y-64974346D01*
X145314798Y-65093241D01*
X145314792Y-65093245D01*
X145310584Y-65095824D01*
X145130031Y-65250031D01*
X144975824Y-65430584D01*
X144973245Y-65434792D01*
X144973241Y-65434798D01*
X144893627Y-65564717D01*
X144851760Y-65633037D01*
X144849867Y-65637607D01*
X144849865Y-65637611D01*
X144768255Y-65834637D01*
X144760895Y-65852406D01*
X144752196Y-65888642D01*
X144718619Y-66028500D01*
X144705465Y-66083289D01*
X144686835Y-66320000D01*
X144705465Y-66556711D01*
X144760895Y-66787594D01*
X144762788Y-66792165D01*
X144762789Y-66792167D01*
X144849356Y-67001158D01*
X144851760Y-67006963D01*
X144854346Y-67011183D01*
X144973241Y-67205202D01*
X144973245Y-67205208D01*
X144975824Y-67209416D01*
X145130031Y-67389969D01*
X145310584Y-67544176D01*
X145314792Y-67546755D01*
X145314798Y-67546759D01*
X145508817Y-67665654D01*
X145513037Y-67668240D01*
X145517607Y-67670133D01*
X145517611Y-67670135D01*
X145727833Y-67757211D01*
X145732406Y-67759105D01*
X145812609Y-67778360D01*
X145958476Y-67813380D01*
X145958482Y-67813381D01*
X145963289Y-67814535D01*
X146121216Y-67826964D01*
X146187556Y-67852249D01*
X146229696Y-67909388D01*
X146234255Y-67980238D01*
X146200424Y-68041671D01*
X144829500Y-69412595D01*
X144767188Y-69446621D01*
X144740405Y-69449500D01*
X144684513Y-69449500D01*
X144678061Y-69450872D01*
X144678056Y-69450872D01*
X144591112Y-69469353D01*
X144497712Y-69489206D01*
X144491682Y-69491891D01*
X144491681Y-69491891D01*
X144329278Y-69564197D01*
X144329276Y-69564198D01*
X144323248Y-69566882D01*
X144317907Y-69570762D01*
X144317906Y-69570763D01*
X144267843Y-69607136D01*
X144168747Y-69679134D01*
X144164326Y-69684044D01*
X144164325Y-69684045D01*
X144099935Y-69755558D01*
X144040960Y-69821056D01*
X143945473Y-69986444D01*
X143886458Y-70168072D01*
X143866496Y-70358000D01*
X143867186Y-70364565D01*
X143884608Y-70530322D01*
X143886458Y-70547928D01*
X143945473Y-70729556D01*
X144040960Y-70894944D01*
X144045378Y-70899851D01*
X144045379Y-70899852D01*
X144145909Y-71011502D01*
X144168747Y-71036866D01*
X144323248Y-71149118D01*
X144329276Y-71151802D01*
X144329278Y-71151803D01*
X144424084Y-71194013D01*
X144497712Y-71226794D01*
X144504167Y-71228166D01*
X144504170Y-71228167D01*
X144514493Y-71230361D01*
X144576967Y-71264089D01*
X144611288Y-71326238D01*
X144606561Y-71397077D01*
X144577392Y-71442703D01*
X144575500Y-71444595D01*
X144513188Y-71478621D01*
X144486405Y-71481500D01*
X144430513Y-71481500D01*
X144424061Y-71482872D01*
X144424056Y-71482872D01*
X144337113Y-71501353D01*
X144243712Y-71521206D01*
X144237682Y-71523891D01*
X144237681Y-71523891D01*
X144075278Y-71596197D01*
X144075276Y-71596198D01*
X144069248Y-71598882D01*
X143914747Y-71711134D01*
X143786960Y-71853056D01*
X143691473Y-72018444D01*
X143632458Y-72200072D01*
X143612496Y-72390000D01*
X111252500Y-72390000D01*
X111252500Y-61594500D01*
X111272502Y-61526379D01*
X111326158Y-61479886D01*
X111378500Y-61468500D01*
X179197500Y-61468500D01*
X179265621Y-61488502D01*
G37*
%TD.AperFunction*%
%TD*%
M02*
