%TF.GenerationSoftware,KiCad,Pcbnew,6.0.11-2627ca5db0~126~ubuntu20.04.1*%
%TF.CreationDate,2023-02-14T16:49:56+01:00*%
%TF.ProjectId,pmod_sfp,706d6f64-5f73-4667-902e-6b696361645f,rev?*%
%TF.SameCoordinates,Original*%
%TF.FileFunction,Paste,Top*%
%TF.FilePolarity,Positive*%
%FSLAX46Y46*%
G04 Gerber Fmt 4.6, Leading zero omitted, Abs format (unit mm)*
G04 Created by KiCad (PCBNEW 6.0.11-2627ca5db0~126~ubuntu20.04.1) date 2023-02-14 16:49:56*
%MOMM*%
%LPD*%
G01*
G04 APERTURE LIST*
G04 Aperture macros list*
%AMRoundRect*
0 Rectangle with rounded corners*
0 $1 Rounding radius*
0 $2 $3 $4 $5 $6 $7 $8 $9 X,Y pos of 4 corners*
0 Add a 4 corners polygon primitive as box body*
4,1,4,$2,$3,$4,$5,$6,$7,$8,$9,$2,$3,0*
0 Add four circle primitives for the rounded corners*
1,1,$1+$1,$2,$3*
1,1,$1+$1,$4,$5*
1,1,$1+$1,$6,$7*
1,1,$1+$1,$8,$9*
0 Add four rect primitives between the rounded corners*
20,1,$1+$1,$2,$3,$4,$5,0*
20,1,$1+$1,$4,$5,$6,$7,0*
20,1,$1+$1,$6,$7,$8,$9,0*
20,1,$1+$1,$8,$9,$2,$3,0*%
G04 Aperture macros list end*
%ADD10RoundRect,0.140000X0.140000X0.170000X-0.140000X0.170000X-0.140000X-0.170000X0.140000X-0.170000X0*%
%ADD11RoundRect,0.140000X-0.140000X-0.170000X0.140000X-0.170000X0.140000X0.170000X-0.140000X0.170000X0*%
%ADD12RoundRect,0.135000X-0.135000X-0.185000X0.135000X-0.185000X0.135000X0.185000X-0.135000X0.185000X0*%
%ADD13RoundRect,0.135000X0.135000X0.185000X-0.135000X0.185000X-0.135000X-0.185000X0.135000X-0.185000X0*%
%ADD14RoundRect,0.147500X0.147500X0.172500X-0.147500X0.172500X-0.147500X-0.172500X0.147500X-0.172500X0*%
%ADD15R,2.000000X0.500000*%
G04 APERTURE END LIST*
D10*
%TO.C,C1*%
X162504000Y-64262000D03*
X161544000Y-64262000D03*
%TD*%
D11*
%TO.C,C3*%
X168402000Y-67818000D03*
X169362000Y-67818000D03*
%TD*%
D12*
%TO.C,R3*%
X161542000Y-68580000D03*
X162562000Y-68580000D03*
%TD*%
D10*
%TO.C,C2*%
X162532000Y-62992000D03*
X161572000Y-62992000D03*
%TD*%
D13*
%TO.C,R1*%
X162560000Y-67056000D03*
X161540000Y-67056000D03*
%TD*%
D11*
%TO.C,C4*%
X168402000Y-66548000D03*
X169362000Y-66548000D03*
%TD*%
D13*
%TO.C,R2*%
X162564000Y-70104000D03*
X161544000Y-70104000D03*
%TD*%
D14*
%TO.C,L2*%
X169418000Y-64008000D03*
X168448000Y-64008000D03*
%TD*%
%TO.C,L1*%
X169395000Y-65278000D03*
X168425000Y-65278000D03*
%TD*%
D11*
%TO.C,C6*%
X168430000Y-70358000D03*
X169390000Y-70358000D03*
%TD*%
%TO.C,C5*%
X168402000Y-69088000D03*
X169362000Y-69088000D03*
%TD*%
D15*
%TO.C,J1*%
X142100000Y-67720000D03*
X142100000Y-68520000D03*
X142100000Y-69320000D03*
X142100000Y-70120000D03*
X142100000Y-70920000D03*
X142100000Y-71720000D03*
X142100000Y-72520000D03*
X142100000Y-73320000D03*
X142100000Y-74120000D03*
X142100000Y-74920000D03*
X150300000Y-74520000D03*
X150300000Y-73720000D03*
X150300000Y-72920000D03*
X150300000Y-72120000D03*
X150300000Y-71320000D03*
X150300000Y-70520000D03*
X150300000Y-69720000D03*
X150300000Y-68920000D03*
X150300000Y-68120000D03*
X150300000Y-67320000D03*
%TD*%
M02*
